<?xml version="1.0" encoding="utf-8"?>
<!-- Generator: Adobe Illustrator 21.0.2, SVG Export Plug-In . SVG Version: 6.00 Build 0)  -->
<svg version="1.1" id="Layer_1" xmlns="http://www.w3.org/2000/svg" xmlns:xlink="http://www.w3.org/1999/xlink" x="0px" y="0px"
	 viewBox="0 0 1920 1080" style="enable-background:new 0 0 1920 1080;" xml:space="preserve">
<style type="text/css">
	.st0{fill:#FFFFFF;
	transform-box:fill-box;}
	.st1{fill:none;
	transform-box:fill-box;}
	.st2{fill:#ACBBBF;
	transform-box:fill-box;}
	.st3{fill:#231F20;
	transform-box:fill-box;}
	*{
	transform-box:fill-box;
	}

</style>
<g id="abMoon" >
	<path class="st0" d="M998.1,53.7c7.1-3,18.2,0.3,26,0c15.6-0.8,34.7-8.9,43.6,10.4c0.2,0.2,0.2,0.3,0.3,0.5
		c-18.9-2.3-38-3.6-57.2-3.6c-8.4,0-16.8,0.3-25.1,0.7C988.4,59,991.6,56.5,998.1,53.7z"/>
	<path class="st0" d="M585.1,295.3c9.2-13,15.9-24.7,30.2-32.9c4.1-2.3,8.4-4.6,12.5-7.1c-21.4,29.3-39.3,60.8-53.4,94
		c-0.7-1.3-1.5-2.8-2.3-4.3C561.1,326.6,574.5,310.1,585.1,295.3z"/>
	<path class="st0" d="M760.9,961.2c-14.1-8.2-23.5-14.3-31.6-28.9c-3.8-6.9-6.6-14.3-9.7-21.5c6.4,4.9,12.8,9.7,19.4,14.3
		c22.7,15.9,46.7,29.6,71.5,41.1C791.4,976.5,779.8,972.1,760.9,961.2z"/>
	<path class="st0" d="M1474.8,688.2c-1.2,7.6-6.7,15.6-9,23.2c-5.6,18.4-3,42.1-26.8,44.5c-3.1,0.3-6.1,1.2-9,2.5
		c16.6-31.2,29.6-64.1,38.8-98C1472.2,669.6,1476.5,676.4,1474.8,688.2z"/>
	<path class="st0" d="M1212.5,950.7L1212.5,950.7c-2.8,1.2-5.6,2.3-8.4,3.3c-7.4,2.5-19.9,0.7-22.4,10.2c-0.2,0.8,0.5,1.6,1.5,1.5
		c8.5-1.6,17.8-2.5,26.1-4.9c1.2-0.3,2.3-0.7,3.5-1.2c-3.6,5.8-6.7,12-10.4,17.9c-7.2,12.2-23.7,13-35.2,18.1
		c-15.8,6.7-33.4,24.2-48.8,9c-3.3-3.3-6.7-5.6-10.4-7.2c7.4-2.6,14.5-5.9,21.2-10.2c1.5-1,0.8-3.1-0.8-3.1
		c-10.7-0.8-22,3.5-32.4,6.1c-2,0.5-4.1,0.8-6.2,1.2l-0.2-0.7c-25.8,4.4-52.3,6.7-78.7,6.7c-178.3,0-342.1-105.2-417.5-264.8
		c0.8-7.9-4.6-15.3-7.9-22.5c-4.4-9.5-11.3-19.2-13.8-29.6c-0.5-1.8-3-1.6-3.5,0c-2.8,8.5,1.6,15.8,5.3,23.5
		c-4.1-2.1-8.7-3.5-13.8-4.9c-18.7-5.1-17.8-51.3-21.4-67.6c-5.4-23.7-25.1-39-4.4-62.5c2.1-2.5,3.8-4.8,5.3-7.1
		c0.8,5.3,2,10.5,3.1,15.6c2.5,10.8,3.3,22.5,9.4,32.1c1.5,2.3,4.4,0.3,3.5-2c-4.3-9.9-2.1-22-3.9-32.5c-1.3-7.2-1.3-14.6-1.8-22
		h0.5c-0.2-5.6-0.3-11.3-0.3-17.1c0-140.4,64.3-273,173.1-360.3c0.7,0.2,1.3,0.2,2,0c4.4-1.2,6.4-3.6,9.9-6.6
		c5.3-4.6,11.5-7.9,17.4-11.3c4.8-2.8,9.4-5.8,13.3-9.5c4.1-3.9,7.2-10.8,13.2-12.7c1.8-0.5,1.8-3.1,0-3.8
		c-11-3.1-20.5,9.7-29.4,14.5c-0.2,0-0.3,0.2-0.5,0.2c2.6-5.4,3.3-11.2,3.8-18.2c1.2-20.5,45.4-29.1,62.1-36.8
		c21.7-10,33.5-31.9,60.3-16.9c7.2,4.1,13.2,5.9,19.4,5.9l0.2,0.5c-4.3,1.3-8.2,2.6-11,3.5c-7.1,2.1-18.6,4.9-19.7,13.6
		c-0.2,1,1.2,1.5,1.8,1.2c7.9-3.5,16.9-6.2,25.5-7.7c6.9-1.2,13.6-2.6,20.5-3.9c6.6-1.3,11.2-0.3,16.3-4.6c0.3-0.2,0.5-0.5,0.5-0.8
		c27.1-4.9,54.9-7.4,82.7-7.4c106.4,0,210.2,37.1,292.4,104.4l0.2-0.2c1.6,1.5,3.3,3,4.9,4.6c8.7,8.7,15.1,18.7,25.1,26
		c1.2,0.8,2.6-0.8,2-2c-3.1-5.1-5.3-10.7-7.9-15.9c-2.8-5.6-7.7-10.4-11.8-15c7.7,1.3,15-0.5,23.8-1.8c16.4-2.1,37.8,44.4,49.6,54.4
		c15.3,13,34.4,24.8,29.1,47.8c-2.8,12.2-3.5,20.1,0.5,29.1c-5.6-8.5-11.3-16.4-18.4-24c-0.5-0.5-1.2,0.2-0.8,0.7
		c4.9,10.7,9.4,21.5,14.8,31.9c3.8,7.2,7.6,15.8,13,22.2c29.4,61.8,45,129.9,45,198.9C1472,713.7,1372.6,872.8,1212.5,950.7z"/>
	<g>
		<path class="st1" d="M814.7,157.1c0.2,1.3,0.2,2.3,0.2,3.5c1.3-1.3,2.8-2.6,4.4-3.6l0,0c0.5-1.3,1-2.6,1.5-3.9
			c-2.6,0.3-5.3,1-7.7,2C813.9,155.5,814.5,155.9,814.7,157.1z"/>
		<path class="st1" d="M824.6,178.8c-0.5,1.3-1,2.6-1.3,3.9c1.2-0.7,2.1-1.2,3.3-1.8C825.5,180.4,824.9,179.8,824.6,178.8z"/>
		<path class="st1" d="M813.7,184.5c-0.5,1.2-1,2.5-1.5,3.8c0.7-0.3,1.3-0.7,2-1C813.9,186.4,813.7,185.5,813.7,184.5z"/>
		<path class="st1" d="M830,155.8c0.2-0.5,0.5-0.8,0.8-1c-1.6-1-3.5-1.5-5.4-1.6c0,0.5-0.2,1-0.3,1.5
			C826.7,153.2,829.5,153.3,830,155.8z"/>
		<path class="st1" d="M708.3,565.2c0-0.2,0.2-0.3,0.2-0.5c-0.2,0.2-0.5,0.3-0.7,0.3c-0.3,0.2-0.7,0.5-1,0.8c0.2,0,0.2,0.2,0.3,0.2
			C707.5,565.7,707.9,565.6,708.3,565.2z"/>
		<path class="st1" d="M720.2,605.4c-1.2,0.3-2.3,0.5-3.5,0.5c0.3,0.7,0.7,1.5,1.2,2.1C718.2,607,719.2,606,720.2,605.4z"/>
		<path class="st1" d="M807.8,179.6c0.5-0.8,0.8-1.6,1.3-2.3c-0.2,0-0.2-0.2-0.3-0.2c-0.5,1-0.8,2-1.2,2.8
			C807.6,179.9,807.6,179.8,807.8,179.6z"/>
		<path class="st1" d="M835.6,173.5c-0.3-0.7-0.7-1.5-0.3-2.5c1.3-5.3,1-9-0.3-12c0.8,5.4,1,11.5-1.2,16.6
			C834.3,175,834.9,174.4,835.6,173.5z"/>
		<path class="st1" d="M687.5,407.1c-0.7-0.3-1.3-0.8-2-1.5c0.5,0.7,1,1.3,1.5,2.1C687.1,407.6,687.3,407.4,687.5,407.1z"/>
		<path class="st1" d="M738.6,609c-0.2,0.2-0.3,0.3-0.5,0.5c-0.8,0.7-1.8,1-2.8,1.2c2.1,0,4.3-0.7,6.1-1.6
			C740.6,609,739.6,609,738.6,609z"/>
		<path class="st1" d="M763.6,188c0-0.3,0.2-0.5,0.2-0.8c-1.6,1.5-3,3.3-3.9,5.1c0.2,0.7,0.3,1.3,0.5,1.8
			C761.1,191.9,762.1,189.6,763.6,188z"/>
		<path class="st1" d="M680.2,396.8C680.2,396.8,680.2,396.9,680.2,396.8c0,0.2,0,0.2,0,0.2S680.2,396.9,680.2,396.8z"/>
		<path class="st1" d="M769.3,203.1c-0.5-0.8-0.7-2-0.2-3.1c0,0,0,0,0-0.2c-0.7-0.3-1.2-1-1.5-1.6c-0.2,0-0.5,0.2-0.7,0.2
			c-0.2,0.3-0.3,0.7-0.3,1.2c0,0.2,0.2,0.2,0.2,0.3c0.3,1,0.2,1.8-0.3,2.8C767.4,203,768.3,203.1,769.3,203.1z"/>
		<path class="st1" d="M779.7,200.7L779.7,200.7c-0.2,0.3-0.5,0.7-0.8,0.8c0.3,0,0.7-0.2,1-0.3C780,201.2,779.8,200.8,779.7,200.7z"
			/>
		<path class="st1" d="M775.9,179.6c0.2-1,0.5-1.8,0.7-2.8c-0.8,0.5-1.6,1.2-2.5,1.6c0,0.5-0.2,1-0.5,1.5c-1,1.5-1.6,3.3-2,5.1
			c0.7-1,1.2-1.8,1.8-2.6C774.3,181.4,775.1,180.4,775.9,179.6z"/>
		<path class="st1" d="M795.8,165.3c-3,1.6-5.9,3.3-8.7,4.9c-0.8,0.5-1.8,1-2.6,1.5c0,1.2,0,2.3,0,3.5c1,0.5,1.5,2,0.5,3
			c-0.3,0.3-0.5,0.7-0.8,1c0,0.7-0.2,1.5-0.3,2.1c0,2.3-0.7,4.8-1.3,7.1c1.6-3.1,3.6-5.9,5.6-8.7C791.5,175,793.8,170.4,795.8,165.3
			z"/>
		<path class="st1" d="M788.7,198.7c2.1-0.8,4.1-1.6,6.2-2.5c-0.5-4.3,0.8-9,2.3-13.5C793.8,188,790.2,193.1,788.7,198.7z"/>
		<path class="st1" d="M803.4,170.7c2.6-4.1,5.4-8.4,5.3-12.8c0-0.3,0-0.5,0.2-0.7c-0.5,0.3-1.2,0.7-1.6,1c-1.3,1-2.6,2-4.1,3
			c0.2,0.3,0.3,0.7,0.5,1C804.2,165.2,804,168.1,803.4,170.7z"/>
		<path class="st1" d="M1022.3,599.9c0,0.2,0.2,0.2,0.2,0.3C1022.3,600.1,1022.3,599.9,1022.3,599.9L1022.3,599.9z"/>
		<path class="st1" d="M1095.1,466.5c0.3,0,0.7,0.2,1.2,0.3c-7.4-3.1-14.5-7.2-19.9-12.7C1081.1,460,1087.6,464.6,1095.1,466.5z"/>
		<path class="st1" d="M1060.6,725.3L1060.6,725.3L1060.6,725.3C1060.8,725.3,1060.6,725.3,1060.6,725.3z"/>
		<path class="st1" d="M1013.8,289.9c-0.2-0.3-0.2-0.8-0.3-1.2c-0.7-0.2-1.3-0.3-2-0.5l0,0c-0.2,0.8-0.3,1.6-0.3,2.6
			c0.3-0.3,0.8-0.7,1.3-0.8C1012.8,289.7,1013.3,289.7,1013.8,289.9z"/>
		<path class="st1" d="M1002.4,317.9c-2.5-0.3-4.8-1.2-6.7-2.5c-0.8,0.3-1.6,0.7-2.5,1c0.5,0.5,1.2,1,1.6,1.6
			C997.3,318,999.9,317.9,1002.4,317.9z"/>
		<path class="st1" d="M998.1,302.2C998.1,302.1,998.3,302.1,998.1,302.2c0.2-0.2,0.2-0.2,0.2-0.2c0-0.2-0.2-0.3-0.2-0.5
			c-0.3,0.2-0.7,0.3-1,0.3c0.2,0.2,0.2,0.2,0.3,0.3C997.8,302.2,998,302.2,998.1,302.2z"/>
		<path class="st1" d="M719.7,910.6c3.1,7.2,5.9,14.6,9.7,21.5c8.1,14.8,17.4,20.9,31.6,28.9c18.9,10.8,30.4,15.3,49.6,4.9
			c-24.8-11.5-48.8-25.3-71.5-41.1C732.5,920.5,726.1,915.5,719.7,910.6z"/>
		<path class="st1" d="M757,580.9c0.5,0.3,0.8,0.7,1.3,0.8c-0.8-2-1.8-3.9-3-5.8c0,0.3,0,0.5,0,0.8c0.3,0.8,0.5,1.6,0.5,2.6
			C756.5,579.7,756.7,580.4,757,580.9z"/>
		<path class="st1" d="M574.2,349.6c14.1-33.2,32.1-64.8,53.4-94c-4.1,2.3-8.4,4.6-12.5,7.1c-14.3,8.2-21,19.9-30.2,32.9
			c-10.5,14.8-23.8,31.2-13.2,50C572.7,346.8,573.6,348.3,574.2,349.6z"/>
		<path class="st1" d="M1068,64.6c-0.2-0.2-0.2-0.3-0.3-0.5c-8.9-19.1-27.9-11-43.6-10.4c-7.7,0.3-18.7-3-26,0
			c-6.6,2.8-9.7,5.3-12.7,8.1c8.4-0.5,16.8-0.7,25.1-0.7C1030,61.1,1049.1,62.3,1068,64.6z"/>
		<path class="st1" d="M1016.5,590.6c1,1.3,1.8,2.6,2.6,3.9c0.5,0,1-0.2,1.6-0.2c-0.7-1.6-1.5-3.1-2.6-4.4
			C1017.7,590.2,1017.2,590.4,1016.5,590.6z"/>
		<path class="st1" d="M677.3,415.8c-0.8-0.3-1.5-0.7-2.1-1.2c0.3,0.5,0.7,1.2,1,1.6C676.6,416.2,676.9,416,677.3,415.8z"/>
		<path class="st1" d="M1054.5,721.1c-0.3,0.2-0.7,0.5-1,0.7c0.5-0.2,1-0.2,1.5-0.3C1054.8,721.2,1054.7,721.2,1054.5,721.1z"/>
		<path class="st1" d="M1013.8,621.5c-0.3,0.2-0.7,0.5-1.2,0.7c2.5,1,4.8,0.8,6.6-1.6c-0.2-0.2-0.2-0.5-0.3-0.7
			C1017.5,621.1,1015.7,621.6,1013.8,621.5z"/>
		<path class="st1" d="M871.7,615.4c0.2,0.2,0.2,0.3,0.3,0.5c0-0.3-0.2-0.7-0.2-1C871.7,615.2,871.7,615.4,871.7,615.4z"/>
		<path class="st1" d="M1057.8,733.2c-3.5,0-7.4,0-10.7,1.2c-0.3,1.5-0.2,3.1,0.7,4.8c4.8-5.3,14-6.4,20.9-5.1
			c-1.3-2-2.8-3.8-4.4-5.6C1065,732.1,1060.4,733.2,1057.8,733.2z"/>
		<path class="st1" d="M1008.3,582.5c0.5,1.2,0.3,2.6-0.5,3.6h0.2c1.8-0.2,3.8-0.3,5.6-0.3C1011.9,584.5,1010.1,583.3,1008.3,582.5z
			"/>
		<path class="st1" d="M1016.1,606.8c0-0.2-0.2-0.3-0.2-0.5c0,0,0,0-0.2,0c0,0.3,0,0.8-0.2,1.2c0.2,0,0.3,0,0.5-0.2
			C1016.2,607.3,1016.1,607,1016.1,606.8z"/>
		<path class="st1" d="M1071.1,741.3c-0.5,0.2-1,0.2-1.5,0.2c1.2,0.3,2.1,1,3,1.6c-0.2-0.7-0.5-1.5-0.7-2.1
			C1071.8,741.1,1071.5,741.3,1071.1,741.3z"/>
		<path class="st1" d="M1246,687.2c2.6-0.3,5.4-0.8,7.9-1.3c-2.6,0.3-5.4,0.5-8.1,0.7C1245.9,686.7,1246,686.9,1246,687.2z"/>
		<path class="st1" d="M1263.3,619.3c-1,10.7-4.4,21-14.6,26.5c-4.3,2.3-10.5,4.8-16.8,5.6c0.2,0.2,0.3,0.3,0.7,0.7
			c5.9-1.2,12.3-0.2,18.4-0.8c6.9-4.3,13.1-9.7,15-17.6c0.2-1.5,0.3-3.1,0.7-4.6c0-0.3,0-0.7,0-1s0.2-0.7,0.3-1
			c0.2-0.5,0.2-0.8,0.3-1.3c0.3-1,1-1.6,1.8-1.8c-1.8-1.8-3.8-3.6-5.8-5.1C1263.3,619.2,1263.3,619.3,1263.3,619.3z"/>
		<path class="st1" d="M668.2,399.4c-0.5-0.7-0.8-1.3-1.3-2c0.7,1.8,1.3,3.6,2,5.4C668.7,401.7,668.4,400.5,668.2,399.4z"/>
		<path class="st1" d="M1283.5,645c-0.3-0.3-0.7-0.7-1-1.2c-2.6-5.1-5.6-10-9-14.6c2.1,7.9,3.3,16.4-0.3,23
			C1276.6,650.2,1280,647.8,1283.5,645z"/>
		<path class="st1" d="M1236.2,616.4c-1,0.8-2.1,1.5-3.1,2.3c3.1-0.2,5.9-0.8,8.7-2C1239.9,616.5,1238.1,616.4,1236.2,616.4z"/>
		<path class="st1" d="M1288.6,645.1c0.3,0.7,0.3,1.5-0.2,2.3c-2,3.6-4.1,6.9-6.6,9.7c1.2,0.7,1.8,2.1,1,3.8
			c-0.7,1.3-1.5,2.5-2.5,3.8c2.6-1.2,5.3-2.3,7.9-3.6c1.6-0.8,3.1,0.8,2.3,2.3c-1.3,3-3.3,5.8-5.6,8.2c0,0.3-0.2,0.5-0.2,0.8
			c4.1-3.6,7.2-8.2,9.2-13.5c0.3-0.8,0.8-1.3,1.3-1.5c-1.5-4.4-3.5-8.9-5.8-13C1289.2,644.6,1288.9,645,1288.6,645.1z"/>
		<path class="st1" d="M1236.3,627.7c-0.3,0-0.7,0.2-0.8,0.2c-2.1,0.5-5.8,1.2-8.9,1c0,0.2,0.2,0.2,0.2,0.2c2.6,0,5.3-0.2,7.4-0.7
			C1234.8,628.2,1235.5,628,1236.3,627.7z"/>
		<path class="st1" d="M1236.6,638.7c1.6-0.2,3.3-0.5,4.8-1.2c8.9-3.1,15-9.5,17.4-18.9c0.2-0.8,0.8-1.3,1.5-1.5
			c-1.2-0.5-2.3-1-3.3-1.5c-0.3,0.2-0.7,0.5-1,0.5c-0.5,0.2-1,0.2-1.3,0.2c0,0.2,0,0.3,0,0.5c-3.1,8.4-6.4,16.4-15,20.4
			C1238.6,637.9,1237.6,638.2,1236.6,638.7z"/>
		<path class="st1" d="M1203,638.6c-1.5,7.4-1.5,15.1-0.3,22.5c0.5-0.5,1-1,1.5-1c-0.3-11.2,1.8-22.4,6.6-32.5
			c0.5-1.2,1.2-2.3,2-3.6C1207.9,627.2,1204.3,632,1203,638.6z"/>
		<path class="st1" d="M1221.7,683.6c0.2,0.2,0.2,0.5,0.3,0.7c1.6,1.2,3.5,1.8,5.4,2.5c-1.6-1-3.1-2-4.8-3
			C1222.3,683.8,1222,683.8,1221.7,683.6z"/>
		<path class="st1" d="M1430,758.4c2.8-1.2,5.8-2,9-2.5c24-2.5,21.4-26.1,26.8-44.5c2.3-7.6,7.9-15.5,9-23.2
			c1.6-11.8-2.6-18.6-6.1-27.9C1459.5,694.3,1446.6,727.2,1430,758.4z"/>
		<path class="st1" d="M649.3,405.5c-2.5-4.8-4.4-10-4.6-15.1c-0.3-1.6-0.8-3.3-1-4.9c-0.2,6.4,1.2,12.8,4.9,18.7
			C648.8,404.5,649,405,649.3,405.5z"/>
		<path class="st1" d="M678.6,819.4c-3.5-4.3-6.9-8.7-10-13.5c3,4.9,6.1,9.9,10,14.1c0.8,0.8,1.8,1.6,2.6,2.5c0,0,0,0,0,0.2
			c0.8,0.7,1.8,1.3,2.6,1.8C681.7,822.7,679.9,821,678.6,819.4z"/>
		<path class="st1" d="M1427.2,336.9c-5.6-6.4-9.4-15-13-22.2c-5.4-10.5-9.9-21.2-14.8-31.9c-0.3-0.5,0.5-1.2,0.8-0.7
			c7.1,7.6,12.8,15.6,18.4,24c-3.8-9-3.3-16.9-0.5-29.1c5.4-23-13.8-34.8-29.1-47.8c-11.8-10.2-33.2-56.7-49.6-54.4
			c-9,1.2-16.1,3-23.8,1.8c4.1,4.6,9,9.4,11.8,15c2.6,5.3,4.8,10.8,7.9,15.9c0.7,1.2-0.8,2.8-2,2c-10.2-7.2-16.4-17.3-25.1-26
			c-1.6-1.6-3.3-3.1-4.9-4.6l-0.2,0.2c-82.2-67.4-185.9-104.4-292.4-104.4c-27.8,0-55.6,2.5-82.7,7.4c-0.2,0.3-0.3,0.7-0.5,0.8
			c-5.1,4.3-9.5,3.3-16.3,4.6c-6.9,1.3-13.6,2.8-20.5,3.9c-8.5,1.5-17.4,4.3-25.5,7.7c-0.8,0.3-2,0-1.8-1.2
			c1.2-8.7,12.5-11.5,19.7-13.6c3-0.8,6.7-2.1,11-3.5l-0.2-0.5c-6.2-0.2-12.2-2-19.4-5.9c-26.8-15.1-38.5,6.9-60.3,16.9
			c-16.8,7.7-61,16.3-62.1,36.8c-0.3,6.9-1.2,12.7-3.8,18.2c0.2,0,0.3-0.2,0.5-0.2c8.9-4.6,18.4-17.6,29.4-14.5
			c1.8,0.5,1.8,3.1,0,3.8c-5.9,1.8-9,8.7-13.2,12.7c-3.9,3.8-8.5,6.9-13.3,9.5c-5.9,3.5-12.2,6.9-17.4,11.3c-3.5,3-5.4,5.4-9.9,6.6
			c-0.7,0.2-1.3,0.2-2,0c-109,87.3-173.1,219.8-173.1,360.3c0,5.8,0.2,11.5,0.3,17.1h-0.5c0.5,7.4,0.7,14.8,1.8,22
			c1.8,10.5-0.3,22.5,3.9,32.5c1,2.3-2.1,4.3-3.5,2c-6.1-9.5-6.9-21.2-9.4-32.1c-1.2-5.1-2.3-10.4-3.1-15.6
			c-1.5,2.3-3.1,4.6-5.3,7.1c-20.7,23.7-1,38.8,4.4,62.5c3.8,16.3,2.6,62.5,21.4,67.6c5.1,1.3,9.7,2.8,13.8,4.9
			c-3.6-7.7-8.1-15-5.3-23.5c0.5-1.6,3-1.8,3.5,0c2.5,10.4,9.4,19.9,13.8,29.6c3.3,7.2,8.7,14.5,7.9,22.5
			c75.4,159.6,239.2,264.8,417.5,264.8c26.5,0,52.9-2.3,78.7-6.7l0.2,0.7c2.1-0.3,4.3-0.7,6.2-1.2c10.4-2.5,21.7-6.7,32.4-6.1
			c1.6,0.2,2.3,2.3,0.8,3.1c-6.7,4.1-13.8,7.6-21.2,10.2c3.6,1.6,7.1,3.9,10.4,7.2c15.5,15.1,33-2.3,48.8-9
			c11.7-4.9,27.9-5.8,35.2-18.1c3.6-5.9,6.7-12,10.4-17.9c-1.2,0.3-2.3,0.7-3.5,1.2c-8.4,2.5-17.4,3.3-26.1,4.9
			c-0.8,0.2-1.6-0.5-1.5-1.5c2.5-9.5,15-7.7,22.4-10.2c2.8-1,5.6-2,8.5-3.1l0,0C1372.6,873.1,1472,714,1472,536
			C1472,466.8,1456.6,398.6,1427.2,336.9z M1342,266.6c9.7-3.3,18.1-0.7,26.3,4.9c9.9,6.6,13.6,18.4,22.8,25.5
			c2.3,1.8,0.3,5.6-2.3,3.9c-10.2-6.2-17.4-17.9-27.9-23.2c-8.7-4.3-19.7-4.8-24.7,5.8c-4.8,10.4,1.6,15.8,3.1,25
			c0.3,2.3-1.8,4.8-4.3,3.3C1318.3,300.9,1323.1,272.8,1342,266.6z M1289.4,446.4c15.1-14.1,30.6,3.1,32.7,18.2
			c0.3,1.8-1.8,3.5-3.3,1.8c-3.9-4.3-5.3-10.8-9.5-14.5c-7.9-6.9-16.9,3.1-18.6,10c-2,8.2-1.6,17.8,2.1,25.6
			c3.8,7.6,9,17.3,16.3,21.9c11.8,7.6,6.1-22.4,4.9-27.1c-0.7-2.6,2.3-5.4,4.8-3.8c13,9.2,16.4,40.9-3.1,45.4
			c-15.3,3.5-27.8-19.7-32.5-30.7C1276.8,478.5,1276.9,458.1,1289.4,446.4z M1253.7,218.9c-4.6,30.4-47.8,18.2-65.9,11.2
			c-21.2-8.4-62.1-31.9-69.7-56.4c-2.6-8.4-1.8-18.6,7.2-23.2c17.1-8.9,26.3-3.5,43.7,1.3c2.8,0.8,1.6,5.1-1.2,4.4
			c-6.9-1.5-13.8-2.5-20.7-3.1c-2.6,1.2-4.9,2.3-7.1,3.5c0.7,0,1.3,0.2,2,0.5c2.8,1.6,3.5,2.8,7.2,4.8c1.2,0.5,0.3,2.1-0.8,2
			c-12.3-2.6-4.3-0.7-4.3-0.5c0.3,2.5,0.8,4.9,1.5,7.4c0.7,1.8,1.5,3.5,2.5,4.9c-0.7-2.5-1-4.9-0.3-7.4c0.7-2.6,4.1-1.8,4.4,0.7
			c0.8,6.1,4.9,11.5,9.5,15.8c-4.8-5.6-8.5-12-9.7-19.1c-0.3-1.8,2.1-3.1,3.1-1.3c2.5,4.8,5.6,9.2,9,13.2c0-1.5,1.8-2.6,3.1-1.3
			c4.4,4.6,9.2,8.9,14.1,12.7c-1.6-1.6-3.1-3.3-4.8-4.9c-1.8-2,1-4.8,3-3c5.4,4.8,11,9.2,16.9,13.3c0.8,0.7,1.8,1.2,3,1.8
			c-1.2-1-2.1-2-3.1-2.8c-4.6-3.6-9.4-7.4-12.8-12.2c-1.2-1.6,0.5-3.6,2.1-3.6c-1.5-3.1,3-5.8,4.8-2.6c1.5,2.5,3.5,4.4,5.6,6.2
			c10.7,5.8,22.8,15.5,22.5,27.1c0,2-1.3,3.9-3.5,4.4c-19.4,4.8-41.3-5.3-57.5-15.8c-13-8.4-22.2-20.5-21.2-36.7
			c0-0.8,0.3-1.5,0.7-2c-11.3,7.2-12.7,14.8-3.8,22.8c5.1,5.4,10.5,10,16.4,14.5c14.3,10.7,29.8,22,47,27.3c9,2.8,19.9,6.6,29.4,5.8
			c17.1-1.5,17.4-21.2,7.2-31.7c-11.2-11.8-23.8-19.1-37.5-27.5c-3.6-2.3-1.3-7.7,2.8-6.7C1218.7,167.3,1257.4,194.9,1253.7,218.9z
			 M1145.9,480.8c-27.3,5.8-65.1,3-86.3-18.4c-11.7-11.8-21.4-43.7-1.2-51.9c2.5-1,3.9,1.8,3.8,3.8c-1.3,9.5-4.9,21.2-0.5,30.7
			c-1.2-4.8-1.2-9.7,1.2-14.3c7.7-15.5,23.5-15.5,38.5-11.7c1.6,0.5,1.8,3.1,0,3.5c-1.6,0.3-3.5,0.7-5.6,0.8c1,3.5-6.9,6.4-7.4,9.2
			c-1.5,7.9,11.2,13.3,16.8,15.8c6.9,3,14.6,1.6,21.4,4.4c1.5,0.7,2.5,3.1,0.5,3.9c-2.3,1-4.6,1.6-6.9,2.1
			c7.6,0.2,15.5-0.7,19.4-3.8c1.5-1.2,3.6,0.2,2.6,2.1c-4.8,10-16.8,13-28.8,12.3c0,0.2,0,0.3,0,0.5c9.4,1.2,18.9,1.2,27.1-1.8
			c8.4-3,10.5-9.4,16.8-14.6c1.3-1.2,3-0.3,3.1,1.3c1.5,11.5-4.3,18.6-13.3,22.4C1148.1,478.3,1147.6,480.4,1145.9,480.8z
			 M1087.9,486.3c-8.4,3.1-17.3,0.7-24.5-4.1c-5.6-3.8-15.3-11.5-12.7-19.2c0.5-1.3,1.8-2.3,3.1-1.8c3.3,1.2,4.4,3.5,6.7,5.8
			c2.8,3,5.8,5.9,9.4,7.9c5.8,3.3,12.3,5.1,18.4,7.7C1090.4,483.4,1089.4,485.9,1087.9,486.3z M1120.6,135.1c2.3,0,2.3,3.5,0,3.6
			c-17.8,1.2-20.7,21-12.7,33.7c4.4,7.1,9.9,13.3,16.3,18.6c9.7,7.9,22.2,13.8,29.8,23.8c1,1.2-0.7,2.8-1.8,2.5
			c-21-5.3-43.4-25.8-52.9-44.9C1090.8,155.5,1100.7,134.4,1120.6,135.1z M1109.6,126.7c0.3,0,0.3,0.5,0,0.5
			C1109.4,127.2,1109.4,126.7,1109.6,126.7z M965.6,103.3c16.6-11.8,36.2-12,55.7-10.8c18.9,1.2,38.8-0.2,56.5,6.9
			c4.4,1.8,9,4.1,13.6,6.2c2.1,0,4.3,0,6.4,0.3c1.3,0.2,1.5,2.1,0.5,2.8c5.1,2.3,10.2,4.3,15.5,5.4c12.5,2.8,25.1,3.3,37.8,4.8
			c19.2,2.3,39.6,8.7,58,14.6c4.4,1.5,2.6,7.9-2,7.1c-24-4.8-47.7-11.7-72-13.5c-14.6-1.2-27.1-3.6-40.6-9.4
			c-3.8-1.6-7.6-3.1-11.3-4.3c-5.1,0.5-10.2,0-16.9-1.3c-16.4-3.1-39.8-9.4-53.9,2.8c-2,1.6-4.8-1-2.8-3c3.9-4.3,8.5-6.9,13.5-8.7
			c-0.8,0-1.6-0.2-2.5-0.2c-19.2-1.5-35.5,4.1-54.1,6.1C963.6,109.8,963.3,105,965.6,103.3z M966.6,258.2c1.3-1.2,3.6,0,3.1,1.8
			c-5.4,17.4-17.1,38.8-6.6,56.7c1.5,2.6,3.5,4.9,5.6,7.1c-7.4-15.8-4.3-39.3,6.2-52.4c5.8-7.2,26.6-29.3,38-18.1
			c0.5,0.5,0.5,1.5,0,2c-4.4,4.3-7.4,3.9-13,6.9c-6.1,3.3-12.7,10-16.3,15.9c-0.2,0.3-0.3,0.7-0.5,1c0,0,0,0,0.2,0
			c0.3-0.5,0.7-1.2,1.2-1.6c5.4-7.1,12.7-12.8,21.5-14.8c8.9-2,13.2,2.8,18.9,8.5c1.3,1.3-0.5,3.6-2,2.6c-3.1-2.1-6.4-2.8-9.7-2.5
			c3.8,1.6,7.1,4.9,9.5,10.5c0.8,1.8-0.8,3.1-2.5,2.3c1.2,2.1,2,4.6,2.3,7.2c1.2,8.2-1.3,19.7-9.2,24.2c-2.5,1.5-5.3,2.1-7.9,2.3
			c2,0.2,3.9,0.3,5.6,1c0.8,0.3,1.3,1.5,0.7,2.1c-8.5,8.2-25,9.7-34.5,2.3c-0.2-0.2-0.3-0.3-0.5-0.5c0,0.8-0.2,1.6-0.3,2.5
			c-0.2,1.3-1,2.3-2.1,2.8c7.1,4.8,15.6,7.4,24.5,8.1c3.1-3,5.8-2.8,10.5-4.6c9.2-3.3,16.3-10.8,20.2-19.9c5.1-12,2.6-21.9,0.3-33.9
			c-1-5.4-1-4.6,0.2-10c0.3-1.5,3-1.6,3.1,0c3,17.4,11.7,38.5,0.2,55.1c-2,3-4.4,5.9-7.2,8.9c0.5-0.3,1.2-0.5,1.6-0.7
			c2.1-1,4.8,1.8,2.6,3.5c-19.4,17.1-57.5,15.5-72.7-7.1C943.6,307,948.7,275,966.6,258.2z M1073.8,748.2c-0.2,0.2-0.5,0.3-0.7,0.3
			c-3,0.8-5.3-1.3-8.2-1.3c-2.8-0.2-6.1,0-7.9,2.5c-1.8,2.6-5.6,0.3-4.3-2.5c1.5-3.5,5.1-5.8,8.7-6.6c-4.1-0.7-8.2-1-11,1.8
			c-0.8,0.8-2,0.7-2.8,0.2c-1,1-3,1.2-3.9-0.3c-1.3-2.1-2.1-4.4-2.1-6.7c-1,0-2-0.8-2.1-1.8c-0.3-4.6,1.6-9.7,4.8-13
			c1-1,2.1-2,3.3-2.8c-3.1,0.7-6.1,1.2-8.2,3.6c-4.6,5.4-5.3,17.6-2.5,23.8c1.2,2.6-1.5,6.6-4.4,4.4c-4.9-3.6-6.1-9.2-5.6-15.1
			c0.3-4.4,0.7-9.9,2.5-14.3c-0.3,0-0.8,0-1.2,0c-1.5,2-2.6,4.4-3.1,6.9c-1,6.1-3.9,19.9,1.5,24.3c1.5,1.3-0.2,3.9-2,3.3
			c-4.9-1.8-7.7-5.6-8.1-10.8c-0.3-5.1-0.7-11.5,0.2-16.9c-1,1.3-2,2.8-2.8,4.6c-4.1,9.4-4.9,20.2,3.9,27.3c2,1.6-0.5,4.8-2.6,3.5
			c-12.2-7.2-13.6-21.2-8.5-33.7c0.8-2,2-4.3,3.5-6.7c-2.1,0.5-4.1,1-6.1,1.6c-3.3,10.8-7.2,20.2-1.8,31.7c3,5.9,5.9,13.8,11.8,17.3
			c1.2,0.7,1,2.5-0.3,2.8c-10,2.5-16.8-9-20.1-17.4c-0.2,1.8-0.3,3.5-1,4.9c-0.7,1.8-2.3,2.5-3.6,2.3c4.8,8.4,12.2,14.5,17.8,23.7
			c1.2,1.8-0.3,4.3-2.5,4.3c-2.8,0-5.3-0.3-7.7-1.3c0,1.5-1.8,2.8-3.3,2.5c-18.7-4.1-37.1-28.6-31.6-48.3
			c6.1-21.4,26.5-37.3,48.2-41.1c8.7-1.5,19.1-2.1,29.1-1c1.6-0.2,3.3,0.2,4.9,0.8c10.8,2,21,6.4,27.9,14.5
			c14.8,17.3,19.1,39.1,1,55.2c-2.1,1.8-5.1-0.5-3.8-3C1073.1,762.7,1074.4,754.9,1073.8,748.2z M1022.8,630.3
			c-15.8,7.6-37-12-33.5-28.3c0.8-3.6,5.4-2.8,6.6,0c1,2.3,4.1,7.9,8.1,12.5c0-0.2,0.2-0.2,0.2-0.3c-1.5-0.8-2.1-2.6-1.2-3.8
			c-1.6-2.1-2.6-4.6-3-7.6c-0.5-3.5,4.9-3.9,5.9-0.8c0.3,1.3,1,2.3,1.8,3c0.2-1.8,0.2-3.5,0.3-5.3c0-0.8,0.5-1.5,1-1.8
			c0-0.2,0-0.2,0-0.3c-2.8-3-6.1-4.6-10.5-5.3c-3-0.3-3.6-3.6-2-5.1c-0.3,0-0.7,0-1-0.2c-1.8-0.2-3.9-0.5-5.8-0.3
			c-1.2,0.2-2,0.7-3.1,0.7c-1.8-0.2-2.3-3-1.5-4.3c1.2-2,3.5-3.9,5.9-4.4c2.1-0.5,4.9-0.8,7.7-0.7c-0.2,0-0.5-0.2-0.8-0.3
			c-4.9-1.5-11-3.3-16.1-1.3c-6.9,2.8-3.8,12,0.5,15.5c2.1,1.8-0.7,4.8-2.8,3.6c-7.2-3.6-11.3-11.7-10-19.6
			c1.5-7.7,12.2-10.7,18.7-10.2c14.1,1.3,37.1,9.4,41.8,24.5C1033.3,601.7,1035.5,624.3,1022.8,630.3z M912.5,627.7
			c-2.6,5.3-6.6,8.7-11,10.7c-1,3.3-4.1,5.6-7.4,6.6c-3.8,5.9-14.5,6.1-20.1,2.5c-7.6-4.9-11.3-13.2-12.8-21.9
			c-0.2-1.5-0.3-3-0.5-4.6c-1.5-4.6-1.3-9.2,1.8-13c1-2.6,2.5-5.1,4.4-6.9c4.4-3.9,9.9-7.4,16.1-7.1c6.1,0.3,10.7,3.8,16.3,5.8
			c2.5,0.8,1.5,4.6-1.2,3.9c-3.3-0.7-7.6-1.2-11.7-0.7c0,1.2-0.5,2.3-1.6,3c-1,0.5-2.6,0.8-3.3,1.3c0.8-0.7-0.3,0.8-0.5,1.2
			c-0.5,2.3-0.2,5.3,0.7,7.7c0.8,2.6,1.8,5.6,3.9,7.6c1.5,1.3,4.8,2.1,6.1,1.6c1.5-0.7,3.6,0.8,2.5,2.5c-0.8,1.2-1.3,2.1-2.1,3.1
			c6.2,0.3,13-1.2,17.1-5.3C911,623.9,913.5,625.9,912.5,627.7z M673.7,614.9c-0.2,3.3-3.9,3.9-5.8,1.5c-2.6-3.6-4.8-7.9-6.2-12.8
			c-0.8-0.3-1.5-0.8-2-1.5c-13.2-17.1-5.9-53.3,10.2-66.7c19.7-16.4,43.1-26.8,68.1-18.6c1.5,0.5,1.8,3,0,3.3
			c-13.3,2-26.5,4.4-38.3,10c7.4-1.6,15.1-2.3,23-1.6c2.5,0.2,2.5,3.6,0,3.8c-21.2,2.8-47,13.8-51.6,37
			C667.7,585.3,674.2,599.3,673.7,614.9z M681.9,594.2c0.5-8.5,2.5-16.1,5.9-22c2.8-8.7,9-16.1,19.4-20.5c27-11.3,62.6,3.1,65.3,35
			c1,11-4.1,24-12.2,33.7c5.9-3.3,11-8.1,14-14.3c7.7-16.4,2.6-34.5,2.1-51.9c0-1.2,1.6-1.3,2-0.3c5.1,13.5,9.7,30.1,8.5,45.2
			c3.9-9.7,3.9-20.1,4.3-31.6c0.2-3.8,5.6-5.8,7.6-2c23.8,45.9-37.1,87.6-78.4,75C699.1,634,680.4,618.5,681.9,594.2z M780.8,455.1
			c-1-16.4,10.8-37.5,29.4-35.5c2.6,0.3,2.6,3.6,0,3.9c-12.3,1.3-22.8,17.3-21.7,29.3c0.5,6.1,3,13.2,7.7,17.3
			c4.9,3.9,9.5,2.8,15.1,3.1c1.3,0,2.5,1.6,1.6,2.8C800.6,492.8,781.5,467.9,780.8,455.1z M808.3,304.4
			c-4.8,11.3-11.2,23.7-25.1,20.5c-1-0.2-0.7-1.5,0.2-1.5c12.7-1.3,16.4-18.6,20.5-28.1c3.5-8.4,9.7-16.4,16.3-22.7
			c12.8-12.5,32.9-25,51.4-19.1c2.3,0.8,2.5,4.1,0,4.8c-15.6,4.4-29.4,4.8-42.1,16.6C820.3,283.7,813.2,292.9,808.3,304.4z
			 M903.1,166.5c2.3,8.7-4.1,16.8-10.2,22.2c-4.1,3.8-8.5,7.1-13.3,9.9c-3,1.6-6.4,4.3-9.9,3.1c-1.3-0.3-1.6-1.6-1.2-2.8
			c1.3-3,5.1-4.3,7.9-5.8c3.8-2.1,7.6-4.6,11-7.4c6.2-5.1,11.8-11,13.3-19.2C901,165.3,903,165.3,903.1,166.5z M791.8,157.9
			c12.2-6.7,26.1-21.2,41.1-12.5c6.1,3.6,10.2,9.7,11,16.1c4.3-8.2,5.3-16.6-6.9-17.1c-0.3,0-0.5-0.7-0.2-0.7
			c10.7-2.8,14.1,6.9,14.3,16.1c0.2,12.5-14.3,24-23.8,29.6c-18.1,10.5-55.7,35.5-74.8,16.4C734.6,187.7,782,163.3,791.8,157.9z
			 M708.2,228.4c9.9,4.3,18.2,9.9,27.9,13.2c-3.9-3.1-0.7-8.9,3.9-6.7c0.3,0.2,0.5,0.2,0.8,0.3c-0.3-1,0-2.1,1-2.8
			c0.5-0.3,1-0.5,1.5-0.7c-13.5-1.2-22.2-7.9-15.9-25.6c0.7-1.6,3.1-1.8,3.6,0c9.4,36.8,67.6,6.7,87.3-4.1
			c19.6-10.7,54.1-24,59.5-47.7c0-0.2,0.3-0.2,0.5,0c1.6,8.9-0.7,15.6-5.4,21.4c13.3-8.9,29.9-20.4,12.8-28.1
			c-9.4-4.3-19.9-5.9-29.9-7.4c-13.2-1.8-30.1-5.1-43.4-3.1c-0.7,0.2-1.2-0.8-0.5-1.2c15.1-6.9,36.3-4.1,52.1-1.5
			c12,2,25.3,3.5,34,12.7c16.8,17.8-25.3,35.7-35.5,40.1c-0.8,0.3-1.8,0-2-0.8c-18.2,13.3-38.3,25.5-59.2,33.9
			c-5.8,2.3-19.4,6.9-33.4,9.4c10.8-0.7,23.2-2,32.4-7.7c1.2-0.7,2.1,1,1,1.8c-3.9,3-7.6,5.3-11.5,7.2c2.1-0.3,4.1-0.7,6.2-1.3
			c14.1-3.9,25.3-12.8,38.8-18.1c1.2-0.5,2,1.3,1.2,2c-11.7,10.5-24,17.6-37.5,21.9c0.2,0,0.3,0.2,0.3,0.2c0.7-0.2,1.3-0.3,2-0.7
			c14.3-5.1,30.2-10,42.6-19.1c9.2-6.9,16.6-15.5,25.5-22.7c0.8-0.7,2.1,0.5,1.3,1.3c-10,10.2-16.4,22-28.6,30.2
			c-13.8,9.2-29.3,17.1-45,22.5c-28.1,9.4-57.5,15.8-82.8-2.8c-0.7-0.5-1.2-1.2-1.5-1.8c-3-2.3-5.6-4.8-8.2-7.7
			C700.6,230.9,704.1,226.6,708.2,228.4z M639,361.4c1.5-3.5,3.3-6.9,5.4-10c9.7-13.6,26.1-25.3,42.4-15.3c0.5,0.3,0.3,1-0.3,1
			c-6.7,0.3-13.2,1.6-18.7,4.3c0.5,1.3-0.3,3.1-2.1,3.5c-2,0.3-4.1,3.3-6.2,7.1c0.8-0.2,1.6-0.3,2.6-0.2c2.8,0.3,3,4.4,0,4.6
			c-1,0-1.8,1.3-2.3,3.5c2,0,3.1,3,1.2,4.4c-0.8,0.7-1.6,1.3-2.3,2.1c-0.2,1.3-0.3,2.6-0.3,3.9c0.7-1.6,1.6-3,2.8-3.9
			c0.3-0.7,0.7-1.5,1-2.1c0.3-4.6,1.5-10.5,5.9-11c0.2,0,0.2,0,0.3,0c0-0.2,0.2-0.3,0.2-0.3c1.5-2.1,4.9-0.3,3.6,2.1
			c-2,3.5-3.6,6.9-4.9,10.2c0.2,0,0.2,0,0.3,0c3.1,0.7,2.3,5.3-0.7,5.4c-0.3,0-0.7,0.2-0.8,0.2c0,4.1,0.5,8.4,0.7,12.5
			c0.3,0.3,0.5,0.7,0.7,1c0.2-5.4,1.2-10.8,3.1-15.9c0.7-1.6,2.5-2,3.6-1.3c0,0,0-0.2,0.2-0.2c2.1-2.5,6.4,0.8,4.4,3.5
			c-3.8,5.3-3.3,12.5-1.3,18.9c0.5,0,1,0.2,1.5,0.5c-0.5-4.1-0.3-8.4-0.2-12.7c0-2.8,4.3-2.8,4.3,0c0,1,0,1.8,0.2,2.8
			c0.7-0.2,1.5-0.2,2.1,0.2c0-0.2,0-0.5,0-0.7c0-0.5,0.2-1,0.3-1.3c-0.5-1.8-0.8-3.8-0.8-5.6c0-3.6,4.9-3.8,5.8-0.7
			c0.8-0.2,1.6,0,2.3,0.3c0.7-0.8,2-1.2,3-0.7c0.5-1.2,1.6-1.6,2.8-1.6c0-0.3,0-0.7,0.2-1c0.3-3.1,5.3-4.4,6.1-0.8
			c2.5,12.5-1.3,27.8-8.5,39.9c-0.2,0.5-0.2,1-0.3,1.5c-1.3,4.3-3.1,8.2-5.9,11.8c-1,1.3-2.6,2.8-4.4,4.3
			c-5.1,6.1-15.1,7.9-22.7,6.6c-12.2-2.1-19.1-11.7-23.8-22.5C634,398.2,630.3,374.1,639,361.4z M615.5,389.7c1.5-3,5.8-1.3,5.9,1.6
			c0.5,11-1.5,21.7,4.6,31.7c4.3,7.1,9.9,13.2,16.8,17.4c14.5,9,31.2,11,45.2-0.7c1-0.8,3,0.3,2,1.6
			C663.3,481.2,596.9,428.8,615.5,389.7z M580.3,598c-1.3-7.2,3.3-15.9,2.5-22.8c-1.5-11.7-7.7-21.2-11.2-32.1
			c-3.3-10.8,3.8-25.3,7.2-35.2c0.5-1.5,2.8-1,2.5,0.7c-3.6,15.5-7.6,29.8,0.5,45c3.8,7.1,5.4,12.7,6.6,20.9
			c2.1,16.1-4.1,28.8,4.9,44.2c2.5,4.1,18.9,23.7,18.9,8.7c0-5.3-0.3-10.4-0.7-15.5c-0.3-4.8,0.2-9.7-0.3-14.5
			c-6.6-8.9-9.4-9.2-8.7-1.3c0.7,3.5,1.3,6.9,2,10.4c1.3,2.6-2,5.4-4.1,3.3c-8.5-8.5-2.3-22.5,1-32.2c0.5-1.3,1.6-2.1,3.1-1.8
			c20.9,5.3,24,74.1,4.3,68.7C590.8,639.2,582.9,613.7,580.3,598z M657.6,814.4c-4.8-5.9-10.8-13.3-16.8-21.5
			c-3.6-4.4-7.2-8.9-10.5-12.7c-9.4-10.4-20.9-23.3-23.2-37.8c-2.5-16.3,5.4-51.3,28.4-36.7c1.2,0.8,0.7,2.3-0.7,2.5
			c-17.6,1.8-20.4,15.6-17.6,28.8c0.5-7.9,3.5-15.8,12-18.1c10.7-3,12.3,6.2,18.6,12.2c1.3,1.2-0.3,3.3-2,2.5
			c-11.8-6.9-20.9,0.7-18.1,12.8c-0.2-2.3,0-4.4,0.2-6.9c0.2-2.3,4.1-3.3,4.4-0.7c1.3,8.2,3.6,15.8,6.4,23.2c-0.8-4.4-1-9-0.5-13.6
			c0.3-2.3,3.8-3.3,4.4-0.7c3.6,14.5,9,27.3,15.6,40.1c-0.5-1.2-1-2.3-1.3-3.5c-0.3-0.8,0.3-1.5,1-1.6c-3.3-9.4-5.1-19.1-6.2-29.9
			c-0.2-0.8,1.2-1.2,1.5-0.5c3.1,5.6,5.6,11.5,7.9,17.4c5.1,7.4,7.2,16.6,13.3,23.7c0.8,1,1.8,2,2.6,3c-6.6-8.5-12.7-18.7-13-28.8
			c0-1.8,2.5-2.3,3.3-0.8c2.8,4.6,5.4,9.2,8.4,13.6c-0.7-1.5,0.2-2.6,1.3-3c-2.6-3.3-4.8-6.7-5.4-11c-0.3-2,2.5-3,3.1-0.8
			c1.8,5.9,7.1,9.7,11.7,13.6c0.7,0,1.2,0.2,1.6,0.8c0,0,0,0,0,0.2c-7.1-10-14.8-19.6-22.4-29.4c-1-1.3,1-3.3,2.3-2.3
			c20.9,14.1,58.8,52.6,51,81.7C710.5,862.6,667.4,826.6,657.6,814.4z M749.9,834.3c-1.6,16.3-23.7,42.9-40.9,27
			c-0.3-0.3-0.5-0.7-0.5-1c-10.4-1.8-20.2-6.9-23.7-14.1c-1-2.1,1.2-4.9,3.5-3.5c11.3,7.2,25,13.8,39,8.2
			c17.4-7.1,1.2-33.5-3.5-42.4c-12.2-23.3-26.8-44.7-43.2-65.3c-0.5-0.7,0.2-1.8,1-1.2c17.8,13.5,30.4,30.9,41.1,50.3
			c6.6,12,15,25,18.1,38.8c0.3-3.1,0.3-6.2,0.2-9.2c-1.2-16.6-9.7-38.1-18.4-52.4c-0.2-0.3,0.3-0.7,0.5-0.3
			C736.5,786.5,752.4,810.7,749.9,834.3z M750.9,708.7c-0.3-1.5,1.6-2.3,2.3-1c4.1,7.6,7.1,15.9,11.7,23
			c7.6,11.8,18.1,14.6,30.7,18.7c15,4.9,27.3,12.7,37.1,25c2.5,3-1.5,7.2-4.4,4.3c-10-10.5-20.2-18.7-34.5-23.2
			c-7.6-2.3-16.3-4.3-22.7-9C759,737.8,753.9,723,750.9,708.7z M790.4,765.9c-1.2-0.5-1.2-2.3,0.3-2.3c9.2-0.2,13.8,3.6,20.7,9.2
			c15.6,12.5,35.5,12.8,53.4,19.1c6.4,2.3,14.6,6.2,21.5,5.9c20.1-0.8-1.6-24.8-4.3-27.1c-5.3-4.4-13-10.7-20.2-11.8
			c-13.2-2.1,1.8,11.8,6.7,13c4.3,1,2.5,7.6-1.8,6.6c-7.1-1.5-27.5-17.4-14.5-25c14.5-8.5,40.9,12.8,46.8,25.3
			c7.4,15.5,1,30.7-18.2,26c-15.8-3.8-33.4-8.1-48.5-13.8C816.3,785,805.7,772.2,790.4,765.9z M838.9,868.5
			c1.3-12,10.7-27.3,24-27.3c1.8,0,3.3,1.3,3.6,3c5.4-3.3,11.2-4.8,17.8-1.8c0.3,0.2,0.2,0.7-0.2,0.7c-17.1,0.5-25.8,18.9-24.5,34
			c2.3,5.9,3.5,12.8,9.2,15.9c4.8,2.6,10.4,2.5,15.9,1c1.5-0.7,3-1.2,4.4-1.5c5.8-2.3,11.2-5.9,14.8-9.4c0.7-0.7,1.6-0.5,2.3-0.2
			c4.9-6.6,8.5-13.6,10.4-19.7c0.2-0.7,1.3-0.7,1.3,0.2c-1.3,17.8-8.7,35.5-25.6,43.7c-13,6.2-26.6,7.2-38.6-1.8
			C842.3,896.8,837.4,882.2,838.9,868.5z M1005.9,981.9c-13.6,0.8-25.8-3-39.3-5.3c-17.3-3-34.5-3.5-51.9-5.4
			c-14.3-1.6-39.3-4.8-49-18.1c-8.2-11.3,4.9-16.1,15-17.4c16.6-2.3,27.8,0.5,36.5,15.5c1.5,2.5-0.3,5.8-3.3,5.8
			c-7.4,0-15,1.6-20.1-4.4c-0.7-0.8-0.2-1.8,0.8-1.8c4.1-0.3,8.2-0.5,12.3-0.8c-7.6-8.9-19.1-12.2-30.9-7.4
			c-12.3,5.1,6.9,14.8,8.7,15.6c16.6,7.2,36.5,6.1,54.4,7.7c23.8,2.5,44.7,6.9,66.9,15C1006.5,981,1006.5,981.9,1005.9,981.9z
			 M953.9,966.3c0.3,0,0.3,0.5,0,0.5S953.6,966.3,953.9,966.3z M1077.5,978.8c-9.9,2.1-19.9,1.6-28.6-4.1c-15-9.7-32.5-10.8-50-12
			c-22-1.5-46.8,1.6-64.1-14.3c-1.5-1.5,0.5-3.6,2.1-2.8c23.7,11.5,53.8,7.6,79.4,10.4c22.2,2.5,39.9,13.3,61.1,19.1
			C1079.3,975.5,1079.5,978.3,1077.5,978.8z M1118.1,910.8c-4.9,17.6-35.3,20.7-50,16.6c-14.3-3.9-30.6-12.2-33.4-28.3
			c-0.5-2.5-0.3-4.8,0-7.1c-0.3-2.6-0.2-5.1,0.2-7.2c0.8-4.9,4.9-12.8,10.4-18.2c1-1,2-2.1,3.1-3c14.8-10.5,35.3-2.8,50.3,3.5
			c1.5,0.7,2.5,2.5,2.8,4.1c3.9,2.3,7.9,5.1,11.5,8.5c2.3,2.1-0.7,5.9-3.3,4.3c-8.2-4.9-19.9-8.1-30.4-8.1c0.5,1.6,1.5,3,3.1,3.9
			c2.3,1.3,0.3,4.9-2.1,3.6c-1.2-0.7-2.1-1.5-3-2.3c-3.5,1.3-7.6,1-10.7-1.5c-0.5-0.3-1-0.8-1.3-1.3c-0.3,0.2-0.5,0.2-0.8,0.3
			c0.7,0.7,1.3,1.3,2.3,2c2.5,1.6,4.8,3.8,7.2,5.3c1.6,1,4.1,3.6,5.9,3.9c0.8,0.2,1,1.5,0.2,1.8c-1.3,0.7-2.6,1.8-4.1,2.1
			c-2.1,0.3-3.9,0.2-6.1,0c-4.4-0.3-8.9-3.3-12.2-6.2c0.7,2.8,2.3,5.1,5.1,6.4c4.3,2,9.9,5.4,14.5,6.2c1.2,0.2,1.8,1,1.8,2
			c7.7-1,15.6-2.3,22.8,0.8c2.1,1,2,4.4,0,5.4c-7.9,4.3-19.7,7.2-30.7,7.1c5.6,1.3,11.3,1.6,16.6,0.3c9.5-2.3,18.1-9.5,27.9-8.2
			C1117.6,907.8,1118.5,909.6,1118.1,910.8z M1038.6,497.8c-14.5-16.3-24.8-56.4-3.8-71c1.3-0.8,2.3,0.8,1.8,1.8
			c-12.8,29.1,0.8,67.6,32.4,77.8c11.7,3.8,24,3.8,36.2,4.1c-8.4-4.1-16.1-9.2-23.2-14.1c-2-1.3-0.3-4.4,1.8-3.3
			c13.5,6.9,29.1,14,44.5,14.5c3.9,0.2,7.9-0.2,12-0.2c-0.8-0.2-1.6-0.3-2.3-0.5c-7.6-1.6-13.5-5.8-20.4-9c-1.8-0.8-1-3.9,1-3.6
			c7.9,1,15.5,4.1,23.3,3.9c6.2-0.2,13.8-2.8,18.7,2c1.2,1.2,1,3,0,4.1c-2,2-4.8,3.1-8.1,3.6c3,0.3,6.1,1.2,8.9,2.5
			c1.8,0.8,1.8,3.9,0,4.8c-7.6,3.6-15.1,5.1-22.8,4.9c-0.3,1.2-1.2,2.1-2.6,2.5C1104.7,530.9,1060.4,522.5,1038.6,497.8z
			 M1309.8,675.5c-0.3,3-1,5.9-2,8.7c-9.2,25.3-32.7,37.8-57,45.5c-0.7,0.2-1.3-0.7-0.7-1.2c13.6-12.7,35.5-22.5,43.7-39.6
			c3.5-7.1,4.4-14.6,3.6-22.2c-1.8,6.6-4.6,12.3-10.2,16.9c-3.1,2.5-8.5,5.6-14.1,6.9c-0.5,0.3-1.2,0.8-1.6,1.2
			c-0.3,1-0.8,2-1.5,2.8c6.6-3,13-6.9,18.7-11.8c2.1-1.8,5.9,0.5,4.1,3.3c-14.5,22-40.4,30.7-63.9,24.8c-0.3,0.2-0.8,0.2-1.3-0.2
			c-0.5-0.2-1.2-0.5-1.6-0.8c-9.5-3-18.6-8.1-26.1-15.9c-5.1-5.3-10.7-18.1-13.3-31.7c0.3,22.5,18.4,43.2,37.3,59.5
			c1.5,1.3-0.2,3.9-2,3.3c-9-2.8-16.9-7.2-23.5-13c0.5,1-0.2,2.3-1.5,2c-0.2,0-0.2-0.2-0.3-0.2c5.6,3.9,11.5,6.9,17.1,11
			c1.8,1.3,2.1,5.1-0.7,5.6c-30.9,5.3-50.3-36.7-48.5-62.1c1.3-18.6,10.8-51.3,31.2-58c1.6-1.2,3.3-2.1,4.9-3.1
			c15.6-12.7,35.2-19.9,54.7-14.6c31.6,8.5,56.5,37.6,63.4,69.4c3.6,16.1,4.3,32.1-3.8,46.8c-6.1,11-22,15.3-32.7,19.6
			c-2.5,1-4.3-3.1-1.8-4.4c12.5-6.6,26.5-13.2,29.1-28.8C1310.6,688.9,1310.6,682.1,1309.8,675.5z M1247.2,764.8
			c28.9,2.1,85-8.5,90.9-44.5c0-0.2,0.3-0.2,0.3,0c-0.3,9.5-3.3,17.6-7.9,24.5c0.2,0.5,0.2,1,0,1.5c-7.9,20.9-27.8,33.4-48.2,40.6
			c-31.2,11-58.5,4.9-88.3-7.6c-1.3-0.5-0.8-2.3,0.7-2.1c35,5.3,66.9,6.4,95.3-6.7c-12.2,3.5-25.1,4.6-36.5,4.1
			c-33.4-1.3-93-18.7-96.5-60.2c-0.2-1.5,1.8-2,2.6-1.2C1185,738.3,1209.2,761.8,1247.2,764.8z M1281.7,824.5
			c-2.5,7.4-6.9,11-14.3,13.3c-3.9,1.3-8.1,2.1-12,3.5c-3,1-5.3,2.3-8.4,1.3c-1-0.3-1.8-1.5-1.5-2.6c2.1-5.4,9.9-6.2,14.8-7.7
			c6.6-1.8,13.3-4.8,18.7-9C1280.2,822.2,1282.2,823,1281.7,824.5z M1338.6,800.1c-12.5,24.2-20.7,47.7-46.2,60.7
			c-9.7,4.9-17.8,11.7-28.1,15.1c-13,4.3-21.4-2.1-35.8,4.4c-17.6,7.9-29.3,24.5-47.7,29.4c-8.2,2.1-14.3-1.8-14.1-9.9
			c0-0.7,1-1.2,1.5-0.7c11.8,13.5,28.3-10.5,37.1-16.6c10.5-7.2,25.8-17.1,39.5-16.8c19.2,0.3,46.8-9.9,60.2-25.8
			c11.2-13.5,18.1-29.4,30.1-42.6C1336.8,795.2,1339.9,797.8,1338.6,800.1z M1343.5,711.7c-0.5,1-2,1-2-0.3
			c-1.3-30.2,7.1-72.7-18.4-96.7c-27.3-25.6-61.6-34.8-98.8-32.2c-35,2.5-70,20.5-82.2,55.9c-8.5,24.8-10.2,63.9,4.6,87
			c1.2,1.6-1.3,3.5-2.6,2.1c-23.5-22.7-20.4-69.2-9.7-97.3c11.8-31.7,42.9-54.2,75.9-58.4c37.6-4.6,89.7-0.7,113.9,33.7
			C1343,632.5,1357,679.8,1343.5,711.7z M1386.7,395c-30.1,8.7-63.9-39.5-65.9-64.8c-0.2-1,1.5-1.5,2-0.5
			c7.1,12.8,14.5,26.6,24.7,37.5c11.7,12.3,23.3,16.3,39.3,20.1C1390.7,387.9,1390.3,393.8,1386.7,395z M1387.5,364.9
			c-12,2.6-26.6-11.3-32.5-20.1c-9.2-13.6-14.5-31.6-11.7-47.8c0.3-2.3,4.3-2.3,4.8,0c1.3,6.9,2.1,14.1,3.6,20.9
			c0.2-0.5,0.2-0.8,0.3-1.3c0.3-1,2-1.2,2.3,0c0.7,2.6,1.5,4.9,2.5,7.4c-0.2-0.8-0.2-1.8-0.2-2.6c0-2.8,3.8-3.1,4.8-0.7
			c1.6,4.6,4.3,9.2,7.4,13.3c-0.8-2.6-1.6-5.3-2.3-7.9c-0.5-1.6,2.1-2.8,2.8-1.2c2.1,4.8,4.8,9.4,8.1,13.6
			c-1.8-3.9-3.1-8.2-3.9-12.3c-0.3-1.8,1.3-2.8,2.6-2.3c0.8-0.3,1.8-0.2,2.5,0.8c1,1.3,2,2.8,3,4.1c0.8-0.7,2.5-0.5,3,0.8
			c0.3,1.3,1,2.8,1.6,4.3c0.2-0.2,0.5-0.2,0.8-0.2c-1.8-7.4-4.3-14.8-4.4-18.4c0-1.3,1.6-2.3,2.8-1.6
			C1396.9,321.6,1407.9,360.4,1387.5,364.9z M1433.1,612.9c-5.9-3.5-6.1-9.7-6.7-15.8c-1.5-11.2-7.7-27.8-4.3-39.3
			c4.6-15.3,13.1-27,12-43.7c-1.2-16.9-4.8-33.7-7.7-50.3c-0.2-1,1.2-1.6,1.6-0.7c14,29.8,20.2,58.4,7.2,88.4
			c-5.6,13.3-1,25,0.7,38.5c2,15.8,14.5,7.1,16.3-4.1c1-6.7,3.5-24.3-1.6-30.9c-0.5,1.3-1.3,2.6-2.6,5.3c-1.8,3.5-7.2,1-6.2-2.6
			c0.7-3.1,1.2-6.2,1.8-9.5c0.2-1.8,1.3-4.1,3.3-4.4c2.5-0.3,4.8-0.7,7.1-1c1.6-0.2,3.8,1.2,4.6,2.6c7.7,15.9,7.2,35.5,1.3,51.9
			C1456.4,606.7,1443.9,619.3,1433.1,612.9z"/>
		<path class="st1" d="M693.4,792.6l0.2,0.2C693.5,792.7,693.4,792.6,693.4,792.6L693.4,792.6z"/>
		<path class="st2" d="M827.5,189.3c9.7-5.6,24-16.9,23.8-29.6c-0.2-9.2-3.6-18.9-14.3-16.1c-0.3,0.2-0.3,0.7,0.2,0.7
			c12.2,0.5,11.2,8.9,6.9,17.1c-0.8-6.4-4.9-12.5-11-16.1c-14.8-8.7-28.9,5.6-41.1,12.5c-9.9,5.6-57.2,29.8-39.3,47.7
			C771.6,224.7,809.3,199.8,827.5,189.3z M834.9,159.1c1.3,2.8,1.6,6.7,0.3,12c-0.2,1,0,1.8,0.3,2.5c-0.7,0.8-1.3,1.5-2,2.1
			C835.9,170.7,835.7,164.7,834.9,159.1z M825.2,153.2c2,0.2,3.9,0.8,5.4,1.6c-0.3,0.2-0.7,0.7-0.8,1c-0.5-2.5-3.3-2.6-4.9-1.3
			C825.1,154,825.2,153.6,825.2,153.2z M824.6,178.8c0.3,1,1.2,1.6,2,2.1c-1,0.7-2.1,1.3-3.3,1.8
			C823.6,181.4,823.9,180.1,824.6,178.8z M820.8,153.2c-0.5,1.3-1,2.6-1.5,3.9l0,0c-1.6,1-3.1,2.3-4.4,3.6c0-1.2,0-2.3-0.2-3.5
			s-0.8-1.8-1.6-2C815.5,154.1,818.1,153.5,820.8,153.2z M813.7,184.5c0,1,0.2,2,0.5,2.8c-0.7,0.3-1.3,0.7-2,1
			C812.7,187,813.2,185.7,813.7,184.5z M809.1,177.3c-0.5,0.8-0.8,1.6-1.3,2.3c0,0.2-0.2,0.2-0.2,0.3c0.3-1,0.8-2,1.2-2.8
			C808.8,177.3,808.9,177.3,809.1,177.3z M807,158.2c0.5-0.3,1-0.7,1.6-1c0,0.2-0.2,0.5-0.2,0.7c0.2,4.4-2.6,8.7-5.3,12.8
			c0.7-2.8,0.8-5.6,0.2-8.7c-0.2-0.3-0.3-0.7-0.5-1C804.3,160.2,805.8,159.4,807,158.2z M795,196.2c-2.1,0.8-4.1,1.6-6.2,2.5
			c1.5-5.6,5.1-10.7,8.5-15.9C795.8,187,794.3,191.9,795,196.2z M784,181.6c0.2-0.7,0.2-1.5,0.3-2.1c0.3-0.3,0.5-0.7,0.8-1
			c1-1.2,0.5-2.5-0.5-3c0-1.2,0-2.3,0-3.5c0.8-0.5,1.8-1,2.6-1.5c3-1.6,5.8-3.3,8.7-4.9c-2.1,5.1-4.4,9.7-7.7,14.5
			c-2,2.8-3.9,5.8-5.6,8.7C783.3,186.4,784,184.1,784,181.6z M779.7,200.7L779.7,200.7c0.2,0.2,0.2,0.5,0.3,0.7
			c-0.3,0.2-0.7,0.2-1,0.3C779.4,201.3,779.5,201,779.7,200.7z M773.8,179.9c0.3-0.5,0.5-1,0.5-1.5c0.8-0.5,1.6-1.2,2.5-1.6
			c-0.2,1-0.5,1.8-0.7,2.8c-0.8,1-1.6,1.8-2.5,2.8c-0.7,0.8-1.2,1.6-1.8,2.6C772.1,183.2,772.6,181.3,773.8,179.9z M766.9,199.8
			c0-0.2-0.2-0.3-0.2-0.3c0.2-0.3,0.3-0.7,0.3-1.2c0.2,0,0.5,0,0.7-0.2c0.3,0.7,0.8,1.3,1.5,1.6c0,0,0,0,0,0.2
			c-0.5,1.2-0.3,2.3,0.2,3.1c-1,0-2-0.2-3-0.5C767,201.8,767.2,200.8,766.9,199.8z M763.7,187.2c0,0.3-0.2,0.5-0.2,0.8
			c-1.5,1.8-2.5,3.9-3.3,6.1c-0.2-0.7-0.3-1.2-0.5-1.8C760.8,190.3,762.1,188.7,763.7,187.2z"/>
		<path class="st2" d="M900.8,166.5c-1.5,8.2-7.1,14.1-13.3,19.2c-3.5,2.8-7.2,5.1-11,7.4c-2.6,1.6-6.6,2.8-7.9,5.8
			c-0.5,1.2-0.2,2.5,1.2,2.8c3.5,1.2,7.1-1.5,9.9-3.1c4.8-2.8,9.2-6.1,13.3-9.9c6.1-5.6,12.5-13.5,10.2-22.2
			C903,165.3,901,165.3,900.8,166.5z"/>
		<path class="st2" d="M711.6,242.2c0.3,0.7,0.7,1.3,1.5,1.8c25.5,18.6,54.9,12.2,82.8,2.8c15.8-5.3,31.2-13.2,45-22.5
			c12.2-8.1,18.6-20.1,28.6-30.2c0.8-0.8-0.3-2-1.3-1.3c-8.9,7.2-16.3,15.9-25.5,22.7c-12.3,9.2-28.3,14.1-42.6,19.1
			c-0.7,0.2-1.3,0.3-2,0.7c-0.2,0-0.2-0.2-0.3-0.2c13.3-4.1,25.8-11.2,37.5-21.9c0.8-0.8,0-2.5-1.2-2c-13.5,5.3-24.7,14.1-38.8,18.1
			c-2.1,0.7-4.1,1-6.2,1.3c3.9-2,7.6-4.3,11.5-7.2c1-0.8,0.2-2.5-1-1.8c-9.2,5.8-21.5,6.9-32.4,7.7c14.1-2.6,27.6-7.1,33.4-9.4
			c20.9-8.4,40.9-20.5,59.2-33.9c0.3,0.7,1.2,1.2,2,0.8c10.2-4.4,52.4-22.4,35.5-40.1c-8.7-9.2-22-10.7-34-12.7
			c-15.8-2.6-37-5.6-52.1,1.5c-0.7,0.3-0.2,1.3,0.5,1.2c13.3-2,30.2,1.3,43.4,3.1c10,1.5,20.7,3.1,29.9,7.4
			c17.3,7.7,0.7,19.2-12.8,28.1c4.9-5.9,7.1-12.7,5.4-21.4c0-0.2-0.3-0.2-0.5,0c-5.6,23.5-40.1,37-59.5,47.7
			c-19.7,10.8-77.9,40.8-87.3,4.1c-0.5-1.8-3-1.6-3.6,0c-6.2,17.8,2.5,24.3,15.9,25.6c-0.5,0.2-1,0.5-1.5,0.7c-1,0.7-1.3,1.8-1,2.8
			c-0.3-0.2-0.5-0.2-0.8-0.3c-4.8-2-8.1,3.8-3.9,6.7c-9.5-3.1-18.1-8.7-27.9-13.2c-3.9-1.8-7.6,2.6-4.6,6.1
			C706,237.5,708.7,239.9,711.6,242.2z"/>
		<path class="st2" d="M892.1,907.1c16.9-8.2,24.3-26,25.6-43.7c0-0.8-1.2-1-1.3-0.2c-1.8,6.1-5.4,13.3-10.4,19.7
			c-0.7-0.5-1.6-0.7-2.3,0.2c-3.6,3.5-8.9,7.1-14.8,9.4c-1.5,0.3-3,1-4.4,1.5c-5.6,1.5-11.2,1.6-15.9-1c-5.8-3.1-6.9-9.9-9.2-15.9
			c-1.3-15,7.6-33.5,24.5-34c0.3,0,0.5-0.5,0.2-0.7c-6.6-3-12.3-1.5-17.8,1.8c-0.3-1.6-1.8-3-3.6-3c-13.5,0-22.7,15.3-24,27.3
			c-1.5,13.8,3.5,28.3,14.6,36.8C865.5,914.4,879.3,913.4,892.1,907.1z"/>
		<path class="st2" d="M720.3,640.4c41.3,12.7,102.2-29.1,78.4-75c-2-3.6-7.4-1.8-7.6,2c-0.3,11.3-0.3,21.7-4.3,31.6
			c1.2-15.1-3.3-31.7-8.5-45.2c-0.3-1-2-1-2,0.3c0.5,17.4,5.6,35.5-2.1,51.9c-3,6.4-8.1,11.2-14,14.3c8.2-9.5,13.2-22.7,12.2-33.7
			c-2.6-31.9-38.3-46.4-65.3-35c-10.4,4.4-16.6,11.8-19.4,20.5c-3.5,5.9-5.3,13.5-5.9,22C680.4,618.5,699.1,634,720.3,640.4z
			 M755.5,575.9c1.2,1.8,2.1,3.8,3,5.8c-0.5-0.3-0.8-0.7-1.3-0.8c-0.3-0.5-0.7-1-1-1.5c0-0.8-0.3-1.6-0.5-2.6
			C755.5,576.4,755.5,576.3,755.5,575.9z M738.1,609.3c0.2-0.2,0.3-0.3,0.5-0.5c1,0,2,0,2.8,0c-2,1-4.1,1.6-6.1,1.6
			C736.3,610.3,737.3,610,738.1,609.3z M720.2,605.4c-1,0.7-1.8,1.5-2.5,2.6c-0.3-0.7-0.8-1.5-1.2-2.1
			C717.7,605.8,719,605.7,720.2,605.4z M707.9,565.2c0.2-0.2,0.5-0.3,0.7-0.3c0,0.2-0.2,0.3-0.2,0.5c-0.5,0.2-0.8,0.5-1.2,0.8
			c-0.2,0-0.2-0.2-0.3-0.2C707.2,565.7,707.5,565.4,707.9,565.2z"/>
		<path class="st2" d="M722.5,532.4c2.5-0.3,2.5-3.6,0-3.8c-7.9-0.5-15.6,0-23,1.6c11.8-5.6,25-8.2,38.3-10c1.8-0.3,1.5-2.8,0-3.3
			c-25-8.1-48.3,2.1-68.1,18.6c-16.1,13.5-23.3,49.6-10.2,66.7c0.5,0.7,1.3,1.2,2,1.5c1.5,4.8,3.6,9.2,6.2,12.8
			c1.8,2.3,5.6,1.8,5.8-1.5c0.5-15.6-5.9-29.8-2.8-45.7C675.5,546.2,701.3,535.2,722.5,532.4z"/>
		<path class="st2" d="M1280.5,724.2c-2.5,1.3-0.7,5.4,1.8,4.4c10.7-4.3,26.8-8.5,32.7-19.6c8.2-14.8,7.4-30.9,3.8-46.8
			c-7.1-31.7-31.9-61-63.4-69.4c-19.6-5.3-39.3,2-54.7,14.6c-1.6,1-3.3,2-4.9,3.1c-20.4,6.7-29.9,39.6-31.2,58
			c-1.8,25.6,17.6,67.6,48.5,62.1c2.8-0.5,2.6-4.1,0.7-5.6c-5.8-4.1-11.5-7.1-17.1-11c0.2,0,0.2,0.2,0.3,0.2c1.3,0.3,2-1,1.5-2
			c6.6,5.8,14.5,10.2,23.5,13c1.8,0.5,3.5-2,2-3.3c-18.9-16.3-37-36.8-37.3-59.5c2.6,13.5,8.2,26.3,13.3,31.7
			c7.6,7.7,16.6,13,26.1,15.9c0.5,0.3,1.2,0.5,1.6,0.8c0.5,0.2,0.8,0.2,1.3,0.2c23.5,5.9,49.5-2.8,63.9-24.8c1.8-2.6-2-5.1-4.1-3.3
			c-5.8,4.9-12.2,8.9-18.7,11.8c0.5-0.8,1-1.8,1.5-2.8c0.7-0.3,1.2-0.7,1.6-1.2c5.4-1.3,11-4.3,14.1-6.9c5.6-4.6,8.4-10.5,10.2-16.9
			c0.8,7.6-0.2,15.1-3.6,22.2c-8.4,17.1-30.1,27-43.7,39.6c-0.5,0.5,0,1.5,0.7,1.2c24.3-7.7,47.8-20.2,57-45.5c1-3,1.6-5.8,2-8.7
			c0.8,6.6,0.8,13.3-0.3,19.9C1307,711,1293,717.6,1280.5,724.2z M1254.4,617c0-0.2,0-0.3,0-0.5c0.5-0.2,1-0.2,1.3-0.2
			c0.3-0.2,0.7-0.3,1-0.5c1.2,0.5,2.3,1,3.3,1.5c-0.7,0.2-1.3,0.7-1.5,1.5c-2.3,9.2-8.4,15.6-17.4,18.9c-1.5,0.5-3.1,0.8-4.8,1.2
			c1-0.3,2-0.8,2.8-1.2C1248,633.5,1251.3,625.4,1254.4,617z M1236.2,616.4c1.8,0,3.8,0.2,5.6,0.3c-2.8,1.2-5.6,1.6-8.7,2
			C1234.2,617.8,1235.2,617,1236.2,616.4z M1210.7,627.5c-4.8,10-6.9,21.4-6.6,32.5c-0.7,0.2-1.2,0.5-1.5,1c-1.2-7.4-1-15,0.3-22.5
			c1.3-6.7,4.9-11.3,9.7-14.8C1211.8,625.1,1211.2,626.4,1210.7,627.5z M1222,684.3c-0.2-0.2-0.2-0.5-0.3-0.7c0.3,0.2,0.7,0.2,1,0.2
			c1.6,1,3.1,2,4.8,3C1225.5,686.2,1223.7,685.4,1222,684.3z M1226.6,629.2c0-0.2-0.2-0.2-0.2-0.2c3.1,0.2,6.6-0.7,8.9-1
			c0.3,0,0.7-0.2,0.8-0.2c-0.7,0.3-1.5,0.5-2.3,0.8C1231.9,629,1229.4,629,1226.6,629.2z M1246,687.2c0-0.3-0.2-0.5-0.2-0.7
			c2.6,0,5.4-0.2,8.1-0.7C1251.4,686.4,1248.6,686.9,1246,687.2z M1267.2,626.1c-0.2,0.5-0.2,0.8-0.3,1.3c-0.2,0.3-0.3,0.7-0.3,1
			s0,0.7,0,1c-0.2,1.5-0.5,3.1-0.7,4.6c-2,7.7-8.1,13.2-15,17.6c-6.1,0.7-12.5-0.5-18.4,0.8c-0.2-0.2-0.3-0.3-0.7-0.7
			c6.1-1,12.5-3.5,16.8-5.6c10-5.4,13.6-15.8,14.6-26.5c0-0.2,0-0.2,0-0.3c2.1,1.5,3.9,3.3,5.8,5.1
			C1268.2,624.4,1267.4,625.1,1267.2,626.1z M1273.5,629.2c3.5,4.4,6.4,9.5,9,14.6c0.2,0.5,0.7,0.8,1,1.2c-3.3,2.8-6.7,5.3-10.4,7.4
			C1276.8,645.6,1275.6,637.1,1273.5,629.2z M1294,658.8c-2,5.3-5.1,9.9-9.2,13.5c0-0.3,0.2-0.5,0.2-0.8c2.3-2.5,4.3-5.3,5.6-8.2
			c0.7-1.5-0.7-3.1-2.3-2.3c-2.6,1.3-5.3,2.6-7.9,3.6c0.8-1.2,1.6-2.5,2.5-3.8c0.8-1.5,0.2-3-1-3.8c2.5-3,4.8-6.2,6.6-9.7
			c0.5-0.8,0.3-1.6,0.2-2.3c0.3-0.3,0.8-0.5,1-1c2.5,4.1,4.4,8.5,5.8,13C1294.8,657.5,1294.3,658,1294,658.8z"/>
		<path class="st2" d="M1210.3,571.7c-33.2,4.1-64.1,26.6-75.9,58.4c-10.5,28.1-13.8,74.8,9.7,97.3c1.3,1.3,3.8-0.3,2.6-2.1
			c-15-23-13.2-62.1-4.6-87c12.2-35.3,47.2-53.4,82.2-55.9c37.1-2.6,71.7,6.6,98.8,32.2c25.5,24,17.1,66.4,18.4,96.7
			c0,1.2,1.5,1.3,2,0.3c13.5-31.9-0.5-79.2-19.4-106.2C1300.1,571,1248,567.1,1210.3,571.7z"/>
		<path class="st2" d="M1157.1,714.3c3.5,41.4,63.1,58.8,96.5,60.2c11.3,0.5,24.2-0.8,36.5-4.1c-28.4,13.2-60.5,12-95.3,6.7
			c-1.5-0.2-1.8,1.6-0.7,2.1c29.8,12.5,56.9,18.7,88.3,7.6c20.4-7.2,40.3-19.7,48.2-40.6c0.2-0.5,0.2-1,0-1.5
			c4.6-6.7,7.6-15,7.9-24.5c0-0.2-0.3-0.2-0.3,0c-5.9,36-61.8,46.7-90.9,44.5c-38-3-62-26.5-87.4-51.4
			C1158.7,712.4,1156.9,712.9,1157.1,714.3z"/>
		<path class="st2" d="M1315.9,524c19.4-4.4,16.1-36,3.1-45.4c-2.5-1.8-5.4,1.2-4.8,3.8c1.2,4.9,6.9,34.7-4.9,27.1
			c-7.4-4.8-12.7-14.3-16.3-21.9c-3.8-7.7-4.3-17.3-2.1-25.6c1.6-6.9,10.7-17.1,18.6-10c4.3,3.8,5.6,10.4,9.5,14.5
			c1.5,1.6,3.5-0.2,3.3-1.8c-2.1-15.1-17.6-32.4-32.7-18.2c-12.5,11.7-12.7,31.9-6.1,46.8C1288.1,504.1,1300.6,527.4,1315.9,524z"/>
		<path class="st2" d="M689.9,441.5c0.8-1.3-1-2.5-2-1.6c-14,11.7-30.7,9.7-45.2,0.7c-7.1-4.3-12.5-10.5-16.8-17.4
			c-6.1-10-4.1-20.7-4.6-31.7c-0.2-3-4.4-4.6-5.9-1.6C596.9,428.8,663.3,481.2,689.9,441.5z"/>
		<path class="st2" d="M1138.7,519.9c7.7,0.2,15.3-1.3,22.8-4.9c1.8-0.8,1.8-3.9,0-4.8c-3-1.3-5.9-2-8.9-2.5
			c3.3-0.5,6.2-1.5,8.1-3.6c1-1.2,1.2-3,0-4.1c-4.9-4.8-12.3-2.1-18.7-2c-8.1,0.2-15.5-3-23.3-3.9c-2-0.2-2.8,2.8-1,3.6
			c6.9,3.3,12.8,7.4,20.4,9c0.7,0.2,1.5,0.3,2.3,0.5c-3.9,0.2-7.9,0.3-12,0.2c-15.3-0.5-31.1-7.7-44.5-14.5
			c-2.1-1.2-3.8,1.8-1.8,3.3c7.1,4.9,14.8,10,23.2,14.1c-12.2-0.3-24.5-0.3-36.2-4.1c-31.6-10.4-45.2-48.7-32.4-77.8
			c0.5-1.2-0.7-2.8-1.8-1.8c-20.9,14.8-10.5,54.7,3.8,71c21.9,24.7,66.1,33,97.3,24.5C1137.4,522,1138.4,521,1138.7,519.9z"/>
		<path class="st2" d="M1072.8,773.8c18.1-16.1,14-38-1-55.2c-6.9-8.1-17.1-12.3-27.9-14.5c-1.6-0.7-3.3-0.8-4.9-0.8
			c-10-1.2-20.4-0.5-29.1,1c-21.7,3.8-42.1,19.7-48.2,41.1c-5.6,19.9,12.8,44.2,31.6,48.3c1.5,0.3,3.3-1,3.3-2.5
			c2.5,0.8,5.1,1.3,7.7,1.3c2.1,0,3.6-2.3,2.5-4.3c-5.6-9-13-15.3-17.8-23.7c1.3,0.2,3-0.5,3.6-2.3c0.7-1.6,0.8-3.3,1-4.9
			c3.3,8.4,9.9,19.9,20.1,17.4c1.3-0.3,1.5-2.1,0.3-2.8c-5.9-3.5-9-11.3-11.8-17.3c-5.6-11.5-1.5-20.9,1.8-31.7
			c2-0.7,3.9-1.3,6.1-1.6c-1.5,2.3-2.6,4.8-3.5,6.7c-5.1,12.5-3.6,26.5,8.5,33.7c2.1,1.3,4.6-1.8,2.6-3.5
			c-8.9-7.1-8.1-17.8-3.9-27.3c0.8-1.8,1.8-3.3,2.8-4.6c-0.8,5.6-0.5,11.8-0.2,16.9c0.3,5.3,3.1,9.2,8.1,10.8c1.8,0.7,3.5-2.1,2-3.3
			c-5.4-4.4-2.5-18.2-1.5-24.3c0.5-2.6,1.5-4.9,3.1-6.9c0.3,0,0.8,0,1.2,0c-1.8,4.4-2.1,9.9-2.5,14.3c-0.5,5.9,0.5,11.7,5.6,15.1
			c3,2.1,5.6-1.8,4.4-4.4c-2.6-6.2-2-18.4,2.5-23.8c2.1-2.5,5.1-3.1,8.2-3.6c-1.3,0.8-2.5,1.8-3.3,2.8c-3.1,3.3-5.1,8.4-4.8,13
			c0.2,1.2,1.2,1.8,2.1,1.8c0,2.3,0.7,4.8,2.1,6.7c1,1.6,2.8,1.3,3.9,0.3c0.8,0.5,2,0.7,2.8-0.2c2.8-2.8,6.9-2.5,11-1.8
			c-3.8,0.7-7.2,3.1-8.7,6.6c-1.3,2.8,2.5,5.1,4.3,2.5s4.9-2.6,7.9-2.5c3,0.2,5.3,2.1,8.2,1.3c0.3,0,0.5-0.2,0.7-0.3
			c0.8,6.9-0.5,14.5-4.8,22.8C1067.7,773.5,1070.6,775.8,1072.8,773.8z M1060.6,725.3C1060.6,725.3,1060.8,725.3,1060.6,725.3
			L1060.6,725.3L1060.6,725.3z M1054.5,721.1c0.2,0.2,0.3,0.2,0.5,0.3c-0.5,0-1,0.2-1.5,0.3C1053.9,721.6,1054.2,721.2,1054.5,721.1
			z M1047.8,739.2c-0.8-1.6-1-3.3-0.7-4.8c3.3-1.2,7.2-1.2,10.7-1.2c2.6,0,7.2-1.2,6.4-4.8c1.6,1.6,3.1,3.6,4.4,5.6
			C1061.6,732.7,1052.4,733.9,1047.8,739.2z M1069.8,741.5c0.5,0,1,0,1.5-0.2c0.3,0,0.7-0.2,0.8-0.3c0.3,0.7,0.5,1.5,0.7,2.1
			C1071.9,742.4,1071,741.9,1069.8,741.5z"/>
		<path class="st2" d="M1116.3,907.6c-9.9-1.3-18.4,5.9-27.9,8.2c-5.3,1.3-11,1-16.6-0.3c11,0.2,22.7-3,30.7-7.1c2-1,2.1-4.4,0-5.4
			c-7.2-3.1-15-1.8-22.8-0.8c0-1-0.7-1.8-1.8-2c-4.6-0.8-10-4.3-14.5-6.2c-2.8-1.3-4.4-3.6-5.1-6.4c3.3,3,7.7,5.9,12.2,6.2
			c2.1,0.2,3.9,0.3,6.1,0c1.5-0.2,2.6-1.5,4.1-2.1c0.8-0.3,0.7-1.6-0.2-1.8c-1.8-0.3-4.3-3-5.9-3.9c-2.5-1.6-4.8-3.6-7.2-5.3
			c-1-0.7-1.6-1.3-2.3-2c0.3-0.2,0.5-0.2,0.8-0.3c0.3,0.5,0.8,1,1.3,1.3c3,2.5,7.1,3,10.7,1.5c0.8,1,1.8,1.8,3,2.3
			c2.3,1.3,4.4-2.3,2.1-3.6c-1.6-1-2.6-2.3-3.1-3.9c10.5,0,22.2,3.1,30.4,8.1c2.6,1.6,5.6-2.1,3.3-4.3c-3.6-3.5-7.6-6.2-11.5-8.5
			c-0.3-1.6-1.3-3.5-2.8-4.1c-15-6.4-35.5-14.1-50.3-3.5c-1.2,0.8-2.3,1.8-3.1,3c-5.4,5.4-9.5,13.3-10.4,18.2
			c-0.3,2.1-0.3,4.6-0.2,7.2c-0.3,2.3-0.3,4.6,0,7.1c2.8,16.1,19.1,24.3,33.4,28.3c14.6,3.9,45,1,50-16.6
			C1118.5,909.6,1117.6,907.8,1116.3,907.6z"/>
		<path class="st2" d="M1030.2,334.8c2-1.8-0.5-4.6-2.6-3.5c-0.5,0.3-1.2,0.5-1.6,0.7c2.8-2.8,5.1-5.9,7.2-8.9
			c11.5-16.6,2.8-37.6-0.2-55.1c-0.3-1.6-2.8-1.5-3.1,0c-1.2,5.4-1.2,4.6-0.2,10c2.3,11.8,4.8,21.9-0.3,33.9
			c-3.8,9-10.8,16.6-20.2,19.9c-4.8,1.6-7.4,1.6-10.5,4.6c-8.9-0.7-17.4-3.3-24.5-8.1c1-0.5,2-1.5,2.1-2.8c0.2-0.8,0.2-1.6,0.3-2.5
			c0.2,0.2,0.3,0.3,0.5,0.5c9.5,7.4,26,5.9,34.5-2.3c0.8-0.7,0.3-2-0.7-2.1c-1.8-0.7-3.6-1-5.6-1c2.6-0.2,5.4-0.8,7.9-2.3
			c7.7-4.6,10.4-15.9,9.2-24.2c-0.3-2.8-1.2-5.3-2.3-7.2c1.5,0.8,3.1-0.7,2.5-2.3c-2.5-5.6-5.8-8.9-9.5-10.5
			c3.3-0.3,6.6,0.3,9.7,2.5c1.6,1,3.3-1.3,2-2.6c-5.8-5.6-10-10.4-18.9-8.5c-8.9,2-15.9,7.6-21.5,14.8c-0.3,0.5-0.7,1.2-1.2,1.6
			c0,0,0,0-0.2,0c0.2-0.3,0.3-0.7,0.5-1c3.6-5.9,10.2-12.7,16.3-15.9c5.6-3.1,8.5-2.6,13-6.9c0.5-0.5,0.5-1.5,0-2
			c-11.3-11.3-32.2,10.7-38,18.1c-10.5,13.3-13.6,36.8-6.2,52.4c-2.1-2.1-3.9-4.4-5.6-7.1c-10.5-18.1,1.2-39.5,6.6-56.7
			c0.5-1.8-1.8-3-3.1-1.8c-17.9,16.9-23,49-9,69.5C972.7,350.1,1010.8,351.7,1030.2,334.8z M1011.3,288.1L1011.3,288.1
			c0.7,0.2,1.5,0.3,2.1,0.5c0.2,0.3,0.3,0.8,0.3,1.2c-0.5-0.2-1-0.2-1.5,0s-0.8,0.5-1.3,0.8C1011.1,289.9,1011.1,289.1,1011.3,288.1
			z M998.1,301.6c0,0.2,0.2,0.3,0.2,0.5l0,0c0,0,0,0-0.2,0s-0.3,0-0.7,0c-0.2,0-0.2-0.2-0.3-0.3
			C997.5,301.9,997.8,301.7,998.1,301.6z M995.7,315.4c2,1.3,4.3,2.1,6.7,2.5c-2.5,0-5.1,0.2-7.6,0.2c-0.5-0.7-1-1.2-1.6-1.6
			C994.2,316,995,315.7,995.7,315.4z"/>
		<path class="st2" d="M988.3,566.6c-6.6-0.7-17.4,2.5-18.7,10.2c-1.5,7.9,2.8,15.9,10,19.6c2.3,1.2,4.9-2,2.8-3.6
			c-4.3-3.6-7.2-12.8-0.5-15.5c5.1-2,11.2-0.2,16.1,1.3c0.2,0,0.5,0.2,0.8,0.3c-2.8-0.2-5.6,0.2-7.7,0.7c-2.3,0.5-4.6,2.5-5.9,4.4
			c-0.8,1.3-0.3,4.1,1.5,4.3c1.2,0.2,2-0.5,3.1-0.7c1.8-0.2,3.9,0.2,5.8,0.3c0.3,0,0.7,0,1,0.2c-1.6,1.6-1,4.8,2,5.1
			c4.4,0.7,7.7,2.3,10.5,5.3c0,0.2,0,0.2,0,0.3c-0.5,0.3-1,1-1,1.8c-0.2,1.8-0.2,3.5-0.3,5.3c-0.8-0.8-1.5-1.8-1.8-3
			c-1-3.1-6.2-2.6-5.9,0.8c0.3,2.8,1.5,5.4,3,7.6c-0.8,1.3-0.3,3,1.2,3.8c0,0.2-0.2,0.2-0.2,0.3c-3.9-4.8-7.2-10.2-8.1-12.5
			c-1.2-2.8-5.8-3.6-6.6,0c-3.5,16.3,17.8,35.8,33.5,28.3c12.8-6.2,10.7-28.6,7.2-39.5C1025.3,575.9,1002.4,567.7,988.3,566.6z
			 M1015.9,606.3L1015.9,606.3c0.2,0.2,0.2,0.3,0.2,0.5s0.2,0.5,0.2,0.7c-0.2,0-0.3,0-0.5,0.2
			C1015.7,607.2,1015.7,606.8,1015.9,606.3z M1007.8,586L1007.8,586c0.8-1,0.8-2.5,0.3-3.6c1.8,1,3.6,2,5.3,3.3
			C1011.6,585.6,1009.6,586,1007.8,586z M1012.6,622.1c0.3-0.2,0.8-0.3,1.2-0.7c2,0.2,3.8-0.5,5.3-1.6c0.2,0.2,0.2,0.5,0.3,0.7
			C1017.5,622.9,1015.1,623.1,1012.6,622.1z M1019.3,594.5c-0.8-1.3-1.8-2.6-2.6-3.9c0.5-0.2,1.2-0.3,1.6-0.7c1.2,1.3,2,2.8,2.6,4.4
			C1020.3,594.3,1019.8,594.3,1019.3,594.5z M1022.3,599.9L1022.3,599.9c0.2,0.2,0.2,0.2,0.2,0.3
			C1022.3,600.1,1022.3,599.9,1022.3,599.9z"/>
		<path class="st2" d="M1482.9,664.7c-4.3-11.5-6.9-20.9-7.4-32.2c6.6-31.6,9.9-63.9,9.9-96.7c0-80.5-20.5-160.1-59.5-230.1
			c-0.2-8.7-0.5-17.1,2.5-25.8c2-5.6,3.8-13.2,2.1-19.1c-4.8-15.9-16.8-26.1-29.3-36.3c-18.4-15.1-28.1-37.6-44.1-55.1
			c-11.5-12.7-32.1-1.3-45.9-5.3c-1.6-0.5-3.1,0-4.4,1c-64.4-51.6-141.5-85.3-222.7-98c-9.2-4.8-7.1-11-13.2-17.9
			c-8.2-9.4-19.2-8.2-30.9-7.1c-12.3,1.2-26.5-0.8-38.3,1.3c-14.5,2.5-24.5,12.5-36.3,19.9c-20.7,2-41.3,5.3-61.5,9.9
			c-8.4-1.8-16.1-2.8-24.2-7.9c-6.6-4.3-11.8-7.2-19.6-8.5c-17.1-3-34.8,12.5-47.5,21.7c-17.8,13-44.7,12.3-61.3,26.3
			c-13.8,11.7-7.6,27.9-16.1,42.4c-0.5,0.8-0.7,1.8-0.7,2.6c-36.7,26.3-69,57.4-96.3,92.1c-11,3.3-22.4,10.4-32.2,15.6
			c-13.8,7.4-20.9,20.9-29.3,33.2c-7.2,10.5-18.6,23.2-19.2,36.7c-0.7,13.6,7.2,23.7,11.3,35.8C547.6,417.6,536.1,476,536.1,536
			c0,3.3,0.2,6.6,0.2,9.9c-2.5,5.6-5.1,10.8-9.9,15.8c-3.9,3.9-8.9,8.2-10.8,13.6c-6.9,17.4,0.8,34.5,7.9,50.8
			c10.2,23.2,5.8,50.8,16.8,73.3c5.4,11,21.2,11.8,31.6,17.6c30.7,74.5,79.4,139.6,142.3,189.9c3.9,9.7,7.4,24.5,9.5,29.4
			c6.1,13.5,14.6,23,27.3,30.4c13.6,8.1,25.5,16.3,41.4,18.9c12.8,2.1,20.5-9.5,31.6-12.8c58.5,25.1,121.8,38.3,186.9,38.3
			c25.1,0,50.1-2.1,74.8-5.9c2.1,0.8,4.1,0.8,9.4,1c11.3,0.5,18.4,11.8,27.8,16.4c10.7,5.3,26.1-4.3,35.5-9
			c13.6-6.9,33.7-9.5,45-19.9c12-10.8,17.9-25,28.1-37c3.3-1.8,6.6-3.6,9.9-5.4c0.5-0.2,1.2-0.3,1.6-0.5c1-0.3,1.8-0.8,2.1-1.6
			c67.2-38.1,124.3-92.4,166.2-157.8c1.6-2.5,3.1-4.9,4.6-7.6c3.5-0.7,4.8-1.6,8.7-5.6c9.4-9.5,21.4-9.2,32.7-13.8
			c10.2-4.3,13.2-20.1,15.3-29.4c3.9-16.4,11.8-32.5,14.1-49.1C1487.7,678.2,1485.4,671.3,1482.9,664.7z M998.1,53.7
			c7.1-3,18.2,0.3,26,0c15.6-0.8,34.7-8.9,43.6,10.4c0.2,0.2,0.2,0.3,0.3,0.5c-18.9-2.3-38-3.6-57.2-3.6c-8.4,0-16.8,0.3-25.1,0.7
			C988.4,59,991.6,56.5,998.1,53.7z M585.1,295.3c9.2-13,15.9-24.7,30.2-32.9c4.1-2.3,8.4-4.6,12.5-7.1
			c-21.4,29.3-39.3,60.8-53.4,94c-0.7-1.3-1.5-2.8-2.3-4.3C561.1,326.6,574.5,310.1,585.1,295.3z M760.9,961.2
			c-14.1-8.2-23.5-14.3-31.6-28.9c-3.8-6.9-6.6-14.3-9.7-21.5c6.4,4.9,12.8,9.7,19.4,14.3c22.7,15.9,46.7,29.6,71.5,41.1
			C791.4,976.5,779.8,972.1,760.9,961.2z M1212.5,950.7L1212.5,950.7c-2.8,1.2-5.6,2.3-8.4,3.3c-7.4,2.5-19.9,0.7-22.4,10.2
			c-0.2,0.8,0.5,1.6,1.5,1.5c8.5-1.6,17.8-2.5,26.1-4.9c1.2-0.3,2.3-0.7,3.5-1.2c-3.6,5.8-6.7,12-10.4,17.9
			c-7.2,12.2-23.7,13-35.2,18.1c-15.8,6.7-33.4,24.2-48.8,9c-3.3-3.3-6.7-5.6-10.4-7.2c7.4-2.6,14.5-5.9,21.2-10.2
			c1.5-1,0.8-3.1-0.8-3.1c-10.7-0.8-22,3.5-32.4,6.1c-2,0.5-4.1,0.8-6.2,1.2l-0.2-0.7c-25.8,4.4-52.3,6.7-78.7,6.7
			c-178.3,0-342.1-105.2-417.5-264.8c0.8-7.9-4.6-15.3-7.9-22.5c-4.4-9.5-11.3-19.2-13.8-29.6c-0.5-1.8-3-1.6-3.5,0
			c-2.8,8.5,1.6,15.8,5.3,23.5c-4.1-2.1-8.7-3.5-13.8-4.9c-18.7-5.1-17.8-51.3-21.4-67.6c-5.4-23.7-25.1-39-4.4-62.5
			c2.1-2.5,3.8-4.8,5.3-7.1c0.8,5.3,2,10.5,3.1,15.6c2.5,10.8,3.3,22.5,9.4,32.1c1.5,2.3,4.4,0.3,3.5-2c-4.3-9.9-2.1-22-3.9-32.5
			c-1.3-7.2-1.3-14.6-1.8-22h0.5c-0.2-5.6-0.3-11.3-0.3-17.1c0-140.4,64.3-273,173.1-360.3c0.7,0.2,1.3,0.2,2,0
			c4.4-1.2,6.4-3.6,9.9-6.6c5.3-4.6,11.5-7.9,17.4-11.3c4.8-2.8,9.4-5.8,13.3-9.5c4.1-3.9,7.2-10.8,13.2-12.7c1.8-0.5,1.8-3.1,0-3.8
			c-11-3.1-20.5,9.7-29.4,14.5c-0.2,0-0.3,0.2-0.5,0.2c2.6-5.4,3.3-11.2,3.8-18.2c1.2-20.5,45.4-29.1,62.1-36.8
			c21.7-10,33.5-31.9,60.3-16.9c7.2,4.1,13.2,5.9,19.4,5.9l0.2,0.5c-4.3,1.3-8.2,2.6-11,3.5c-7.1,2.1-18.6,4.9-19.7,13.6
			c-0.2,1,1.2,1.5,1.8,1.2c7.9-3.5,16.9-6.2,25.5-7.7c6.9-1.2,13.6-2.6,20.5-3.9c6.6-1.3,11.2-0.3,16.3-4.6c0.3-0.2,0.5-0.5,0.5-0.8
			c27.1-4.9,54.9-7.4,82.7-7.4c106.4,0,210.2,37.1,292.4,104.4l0.2-0.2c1.6,1.5,3.3,3,4.9,4.6c8.7,8.7,15.1,18.7,25.1,26
			c1.2,0.8,2.6-0.8,2-2c-3.1-5.1-5.3-10.7-7.9-15.9c-2.8-5.6-7.7-10.4-11.8-15c7.7,1.3,15-0.5,23.8-1.8
			c16.4-2.1,37.8,44.4,49.6,54.4c15.3,13,34.4,24.8,29.1,47.8c-2.8,12.2-3.5,20.1,0.5,29.1c-5.6-8.5-11.3-16.4-18.4-24
			c-0.5-0.5-1.2,0.2-0.8,0.7c4.9,10.7,9.4,21.5,14.8,31.9c3.8,7.2,7.6,15.8,13,22.2c29.4,61.8,45,129.9,45,198.9
			C1472,713.7,1372.6,872.8,1212.5,950.7z M1474.8,688.2c-1.2,7.6-6.7,15.6-9,23.2c-5.6,18.4-3,42.1-26.8,44.5
			c-3.1,0.3-6.1,1.2-9,2.5c16.6-31.2,29.6-64.1,38.8-98C1472.2,669.6,1476.5,676.4,1474.8,688.2z"/>
		<path class="st2" d="M719.4,830.2c8.1-29.1-30.1-67.7-51-81.7c-1.3-1-3.5,1-2.3,2.3c7.6,9.9,15.3,19.4,22.4,29.4c0,0,0,0,0-0.2
			c-0.5-0.7-1.2-0.8-1.6-0.8c-4.4-3.9-9.9-7.7-11.7-13.6c-0.7-2-3.5-1.2-3.1,0.8c0.7,4.1,2.8,7.7,5.4,11c-1.2,0.3-2,1.5-1.3,3
			c-3-4.4-5.6-9-8.4-13.6c-0.8-1.5-3.5-1-3.3,0.8c0.5,10,6.4,20.2,13,28.8c-0.8-1-1.8-2-2.6-3c-6.1-7.1-8.2-16.3-13.3-23.7
			c-2.3-5.9-4.8-11.8-7.9-17.4c-0.3-0.7-1.6-0.5-1.5,0.5c1.2,10.8,3.1,20.5,6.2,29.9c-0.7,0.3-1.3,1-1,1.6c0.3,1.2,0.8,2.3,1.3,3.5
			c-6.6-12.8-12-25.6-15.6-40.1c-0.7-2.6-4.1-1.8-4.4,0.7c-0.7,4.6-0.3,9,0.5,13.6c-2.8-7.2-4.9-14.8-6.4-23.2
			c-0.5-2.8-4.3-1.8-4.4,0.7c-0.2,2.3-0.3,4.6-0.2,6.9c-3-12.3,6.2-19.9,18.1-12.8c1.5,0.8,3.1-1.2,2-2.5
			c-6.2-5.9-7.9-15.1-18.6-12.2c-8.5,2.3-11.3,10.4-12,18.1c-2.6-13.2,0.2-27,17.6-28.8c1.3-0.2,1.8-1.6,0.7-2.5
			c-23-14.6-31.1,20.4-28.4,36.7c2.1,14.5,13.8,27.3,23.2,37.8c3.5,3.8,6.9,8.2,10.5,12.7c5.9,8.2,12,15.6,16.8,21.5
			C667.4,826.6,710.5,862.6,719.4,830.2z M681.2,822.5L681.2,822.5c-0.8-1-1.8-1.8-2.6-2.6c-3.9-4.3-7.1-9-10-14.1
			c3.1,4.8,6.6,9.2,10,13.5c1.3,1.6,3.1,3.3,5.3,5.1C682.9,823.8,682,823.2,681.2,822.5z M693.4,792.6L693.4,792.6
			c0.2,0,0.2,0.2,0.2,0.2C693.5,792.7,693.4,792.6,693.4,792.6z"/>
		<path class="st2" d="M722.2,769.4c8.7,14.1,17.4,35.7,18.4,52.4c0.2,3,0.2,6.1-0.2,9.2c-3.1-13.8-11.3-26.8-18.1-38.8
			c-10.7-19.4-23.3-36.8-41.1-50.3c-0.8-0.7-1.5,0.7-1,1.2c16.3,20.7,31.1,41.9,43.2,65.3c4.6,8.9,21,35.3,3.5,42.4
			c-13.8,5.6-27.6-1-39-8.2c-2.3-1.5-4.6,1.3-3.5,3.5c3.6,7.2,13.3,12.3,23.7,14.1c0.2,0.3,0.3,0.8,0.5,1
			c17.3,15.9,39.3-10.7,40.9-27c2.5-23.8-13.3-48-27.1-65.4C722.5,768.7,722,769.1,722.2,769.4z"/>
		<path class="st2" d="M1196.4,169.6c13.6,8.4,26.3,15.6,37.5,27.5c10,10.7,9.9,30.4-7.2,31.7c-9.5,0.8-20.4-3-29.4-5.8
			c-17.3-5.3-32.7-16.8-47-27.3c-5.9-4.4-11.3-9.2-16.4-14.5c-8.9-8.1-7.6-15.8,3.8-22.8c-0.3,0.7-0.7,1.3-0.7,2
			c-1,16.1,8.2,28.3,21.2,36.7c16.1,10.5,38.1,20.7,57.5,15.8c2-0.5,3.3-2.5,3.5-4.4c0.5-11.7-11.8-21.4-22.5-27.1
			c-2.1-1.8-4.1-3.8-5.6-6.2c-1.8-3.1-6.1-0.5-4.8,2.6c-1.6,0-3.3,2-2.1,3.6c3.5,4.8,8.2,8.5,12.8,12.2c1,0.8,2,1.6,3.1,2.8
			c-1.2-0.7-2.1-1.2-3-1.8c-5.9-4.1-11.5-8.5-16.9-13.3c-2-1.8-4.8,1-3,3c1.5,1.6,3.1,3.3,4.8,4.9c-5.1-3.8-9.7-8.2-14.1-12.7
			c-1.3-1.3-3.1-0.2-3.1,1.3c-3.5-3.9-6.6-8.4-9-13.2c-1-1.8-3.5-0.5-3.1,1.3c1.2,7.1,4.9,13.5,9.7,19.1c-4.6-4.3-8.7-9.7-9.5-15.8
			c-0.3-2.3-3.8-3.3-4.4-0.7c-0.7,2.5-0.3,4.9,0.3,7.4c-0.8-1.6-1.8-3.3-2.5-4.9c-0.8-2.5-1.3-4.9-1.5-7.4c0-0.3-8.2-2.1,4.3,0.5
			c1.2,0.2,2-1.3,0.8-2c-3.9-1.8-4.6-3-7.2-4.8c-0.7-0.3-1.3-0.5-2-0.5c2.1-1.2,4.4-2.3,7.1-3.5c6.9,0.7,14,1.6,20.7,3.1
			c3,0.7,4.1-3.6,1.2-4.4c-17.4-4.6-26.8-10.2-43.7-1.3c-8.9,4.6-9.9,14.8-7.2,23.2c7.6,24.3,48.5,48,69.7,56.4
			c17.9,7.1,61.3,19.2,65.9-11.2c3.6-24.2-35-51.6-54.6-56.2C1195.1,161.9,1192.6,167.3,1196.4,169.6z"/>
		<path class="st3" d="M1109.6,126.7c-0.3,0-0.3,0.5,0,0.5S1109.9,126.7,1109.6,126.7z"/>
		<path class="st2" d="M1099.4,172.4c9.5,19.1,31.7,39.8,52.9,44.9c1.3,0.3,2.8-1.2,1.8-2.5c-7.7-10-20.1-15.9-29.8-23.8
			c-6.4-5.3-11.8-11.5-16.3-18.6c-8.1-12.7-4.9-32.5,12.7-33.7c2.3-0.2,2.3-3.6,0-3.6C1100.7,134.4,1090.8,155.5,1099.4,172.4z"/>
		<path class="st2" d="M662.8,432.4c7.6,1.3,17.6-0.7,22.7-6.6c1.8-1.3,3.3-3,4.4-4.3c2.8-3.6,4.6-7.6,5.9-11.8
			c0.2-0.5,0.2-1,0.3-1.5c7.2-12.2,11-27.5,8.5-39.9c-0.7-3.6-5.6-2.3-6.1,0.8c0,0.3,0,0.7-0.2,1c-1.2-0.2-2.3,0.3-2.8,1.6
			c-1-0.5-2.1-0.3-3,0.7c-0.7-0.3-1.5-0.5-2.3-0.3c-0.8-3.1-5.8-3-5.8,0.7c0,2,0.3,3.8,0.8,5.6c-0.2,0.3-0.3,0.8-0.3,1.3
			c0,0.2,0,0.5,0,0.7c-0.7-0.3-1.5-0.3-2.1-0.2c0-1,0-1.8-0.2-2.8c0-2.8-4.3-2.8-4.3,0c-0.2,4.3-0.2,8.5,0.2,12.7
			c-0.5-0.3-1-0.5-1.5-0.5c-2-6.6-2.5-13.6,1.3-18.9c1.8-2.6-2.5-5.9-4.4-3.5c0,0,0,0.2-0.2,0.2c-1.2-0.7-3-0.5-3.6,1.3
			c-2,5.1-2.8,10.5-3.1,15.9c-0.2-0.3-0.3-0.7-0.7-1c-0.2-4.1-0.7-8.4-0.7-12.5c0.3-0.2,0.5-0.2,0.8-0.2c3-0.2,3.9-4.8,0.7-5.4
			c-0.2,0-0.2,0-0.3,0c1.3-3.5,2.8-6.7,4.9-10.2c1.3-2.3-2.1-4.3-3.6-2.1c-0.2,0.2-0.2,0.3-0.2,0.3c-0.2,0-0.2-0.2-0.3,0
			c-4.4,0.5-5.4,6.4-5.9,11c-0.3,0.7-0.7,1.5-1,2.1c-1.3,1-2.1,2.3-2.8,3.9c0.2-1.3,0.2-2.6,0.3-3.9c0.7-0.8,1.5-1.5,2.3-2.1
			c2-1.5,0.8-4.4-1.2-4.4c0.5-2.1,1.3-3.5,2.3-3.5c3,0,2.8-4.3,0-4.6c-1-0.2-1.8,0-2.6,0.2c2-3.8,4.3-6.7,6.2-7.1
			c2-0.3,2.8-2.1,2.1-3.5c5.6-2.6,11.8-3.9,18.7-4.3c0.5,0,0.7-0.7,0.3-1c-16.3-10-32.7,1.6-42.4,15.3c-2.3,3.1-4.1,6.4-5.4,10
			c-8.9,12.7-4.9,36.8,0,48.5C643.7,420.8,650.8,430.3,662.8,432.4z M687.5,407.1c-0.2,0.2-0.3,0.5-0.5,0.7c-0.5-0.7-1-1.3-1.5-2.1
			C686.2,406.3,686.8,406.8,687.5,407.1z M680.2,396.8v0.2C680.2,396.9,680.2,396.9,680.2,396.8
			C680.2,396.9,680.2,396.8,680.2,396.8z M677.3,415.8c-0.3,0.2-0.8,0.3-1.2,0.3c-0.3-0.5-0.7-1.2-1-1.6
			C675.8,415.2,676.6,415.5,677.3,415.8z M668.2,399.4c0.2,1.2,0.5,2.3,0.7,3.5c-0.7-1.8-1.3-3.5-2-5.4
			C667.4,398.2,667.9,398.9,668.2,399.4z M644.6,390.2c0.2,5.3,2.1,10.4,4.6,15.1c-0.3-0.5-0.5-0.8-0.8-1.3
			c-3.8-5.9-5.1-12.3-4.9-18.7C643.9,386.9,644.2,388.5,644.6,390.2z"/>
		<path class="st2" d="M1335.1,311.8c2.3,1.5,4.6-1,4.3-3.3c-1.3-9.2-7.7-14.6-3.1-25c4.8-10.5,15.8-10,24.7-5.8
			c10.5,5.1,17.8,16.8,27.9,23.2c2.6,1.6,4.6-2.3,2.3-3.9c-9.2-7.1-13-18.9-22.8-25.5c-8.4-5.6-16.6-8.2-26.3-4.9
			C1323.1,272.8,1318.3,300.9,1335.1,311.8z"/>
		<path class="st2" d="M1385.1,313.7c-1.2-0.8-2.8,0.2-2.8,1.6c0.2,3.6,2.5,10.8,4.4,18.4c-0.3,0-0.5,0.2-0.8,0.2
			c-0.7-1.5-1.2-3-1.6-4.3c-0.3-1.3-2-1.5-3-0.8c-1-1.3-2-2.8-3-4.1c-0.7-1-1.6-1.2-2.5-0.8c-1.3-0.5-3.1,0.5-2.6,2.3
			c0.8,4.3,2.1,8.4,3.9,12.3c-3.1-4.3-5.9-9-8.1-13.6c-0.7-1.6-3.3-0.5-2.8,1.2c0.7,2.6,1.5,5.3,2.3,7.9c-3.1-4.1-5.8-8.7-7.4-13.3
			c-0.8-2.5-4.8-2.1-4.8,0.7c0,0.8,0,1.6,0.2,2.6c-1.2-2.3-2-4.8-2.5-7.4c-0.3-1.2-2-1-2.3,0c-0.2,0.5-0.2,0.8-0.3,1.3
			c-1.5-6.9-2.1-14-3.6-20.9c-0.5-2.3-4.3-2.3-4.8,0c-2.8,16.4,2.6,34.4,11.7,47.8c5.9,8.9,20.5,22.7,32.5,20.1
			C1407.9,360.4,1396.9,321.6,1385.1,313.7z"/>
		<path class="st2" d="M1386.7,387.1c-15.9-3.6-27.6-7.7-39.3-20.1c-10.2-10.7-17.6-24.5-24.7-37.5c-0.5-0.8-2-0.5-2,0.5
			c2,25.3,35.8,73.5,65.9,64.8C1390.3,393.8,1390.7,387.9,1386.7,387.1z"/>
		<path class="st2" d="M1458.4,545.5c-0.7-1.5-3-2.8-4.6-2.6c-2.5,0.2-4.8,0.5-7.1,1c-2.1,0.3-3.1,2.5-3.3,4.4
			c-0.7,3.1-1.2,6.2-1.8,9.5c-1,3.8,4.4,6.1,6.2,2.6c1.3-2.6,2.1-3.9,2.6-5.3c5.1,6.6,2.6,24,1.6,30.9c-1.8,11.2-14.1,20.1-16.3,4.1
			c-1.6-13.3-6.4-25.1-0.7-38.5c12.8-30.2,6.6-58.8-7.2-88.4c-0.5-1-1.8-0.2-1.6,0.7c3,16.8,6.4,33.4,7.7,50.3
			c1.2,16.8-7.4,28.4-12,43.7c-3.5,11.5,3,27.9,4.3,39.3c0.8,6.1,0.8,12.3,6.7,15.8c11,6.4,23.3-6.2,26.6-15.5
			C1465.6,581,1466.1,561.5,1458.4,545.5z"/>
		<path class="st3" d="M953.9,966.3c-0.3,0-0.3,0.5,0,0.5C954.3,966.8,954.3,966.3,953.9,966.3z"/>
		<path class="st2" d="M892.4,630.8c0.8-1,1.3-2,2.1-3.1c1.2-1.6-1-3.1-2.5-2.5c-1.3,0.7-4.6-0.2-6.1-1.6c-2.1-2-3-4.9-3.9-7.6
			c-0.8-2.6-1.3-5.6-0.7-7.7c0-0.3,1.3-1.6,0.5-1.2c0.7-0.5,2.1-0.8,3.3-1.3c1.2-0.7,1.6-1.8,1.6-3c4.1-0.3,8.4,0,11.7,0.7
			c2.6,0.7,3.6-3.1,1.2-3.9c-5.6-2-10.2-5.3-16.3-5.8c-6.2-0.5-11.7,3.1-16.1,7.1c-2.1,1.8-3.5,4.3-4.4,6.9c-3.1,3.8-3.3,8.5-1.8,13
			c0,1.6,0.2,3.1,0.5,4.6c1.3,8.7,5.3,16.9,12.8,21.9c5.6,3.6,16.1,3.6,20.1-2.5c3.5-1,6.4-3.5,7.4-6.6c4.4-2,8.4-5.4,11-10.7
			c1-1.8-1.5-3.9-3-2.3C905.6,629.7,898.7,631.2,892.4,630.8z M871.7,615.4c0-0.2,0-0.3,0-0.3c0,0.3,0.2,0.7,0.2,1
			C871.9,615.9,871.7,615.7,871.7,615.4z"/>
		<path class="st2" d="M1160.5,454.8c-0.2-1.6-1.8-2.5-3.1-1.3c-6.2,5.3-8.4,11.7-16.8,14.6c-8.4,3-17.9,3-27.1,1.8
			c0-0.2,0-0.3,0-0.5c12,0.8,24-2.3,28.8-12.3c0.8-1.8-1.2-3.3-2.6-2.1c-3.9,3.1-11.8,3.9-19.4,3.8c2.3-0.5,4.6-1.2,6.9-2.1
			c2-0.8,1-3.3-0.5-3.9c-6.9-2.8-14.6-1.5-21.4-4.4c-5.8-2.5-18.2-7.9-16.8-15.8c0.5-2.8,8.4-5.8,7.4-9.2c2-0.3,3.9-0.5,5.6-0.8
			c1.8-0.3,1.6-3.1,0-3.5c-15-3.8-30.6-3.9-38.5,11.7c-2.3,4.6-2.5,9.5-1.2,14.3c-4.4-9.5-1-21.2,0.5-30.7c0.3-2-1.3-4.8-3.8-3.8
			c-20.2,8.4-10.5,40.3,1.2,51.9c21.2,21.4,59,24.2,86.3,18.4c1.6-0.3,2.1-2.5,1.3-3.6C1156.3,473.4,1162,466.3,1160.5,454.8z
			 M1095.1,466.5c-7.7-1.8-14.1-6.2-18.7-12.3c5.4,5.4,12.5,9.4,19.9,12.7C1095.9,466.6,1095.6,466.5,1095.1,466.5z"/>
		<path class="st2" d="M1070,474.8c-3.6-2-6.6-4.9-9.4-7.9c-2.3-2.5-3.5-4.8-6.7-5.8c-1.3-0.5-2.6,0.5-3.1,1.8
			c-2.8,7.7,7.1,15.6,12.7,19.2c7.2,4.9,16.1,7.2,24.5,4.1c1.5-0.5,2.3-3,0.5-3.8C1082.3,479.9,1075.9,478,1070,474.8z"/>
		<path class="st2" d="M1334.9,797.2c-12,13.2-18.9,29.1-30.1,42.6c-13.3,15.9-41.1,26.1-60.2,25.8c-13.5-0.2-28.8,9.5-39.5,16.8
			c-8.9,6.1-25.3,30.1-37.1,16.6c-0.5-0.5-1.5-0.2-1.5,0.7c-0.2,8.1,5.9,12,14.1,9.9c18.4-4.9,30.1-21.5,47.7-29.4
			c14.5-6.6,22.8-0.2,35.8-4.4c10.4-3.5,18.4-10.2,28.1-15.1c25.5-13,33.9-36.5,46.2-60.7C1339.9,797.8,1336.8,795.2,1334.9,797.2z"
			/>
		<path class="st2" d="M1279.2,823.2c-5.4,4.4-12.2,7.2-18.7,9c-5.1,1.5-12.8,2.3-14.8,7.7c-0.5,1.2,0.5,2.3,1.5,2.6
			c3.1,1,5.4-0.3,8.4-1.3c3.9-1.2,8.1-2.1,12-3.5c7.2-2.3,11.8-5.9,14.3-13.3C1282.2,823,1280.2,822.2,1279.2,823.2z"/>
		<path class="st2" d="M604.5,575.4c-1.3-0.3-2.6,0.5-3.1,1.8c-3.3,9.7-9.5,23.7-1,32.2c2.3,2.3,5.4-0.7,4.1-3.3
			c-0.7-3.5-1.3-6.9-2-10.4c-0.7-8.1,2.1-7.6,8.7,1.3c0.5,4.8,0.2,9.7,0.3,14.5c0.3,5.3,0.7,10.4,0.7,15.5c0,15-16.6-4.6-18.9-8.7
			c-9.2-15.5-2.8-27.9-4.9-44.2c-1.2-8.2-2.8-13.6-6.6-20.9c-8.1-15.3-4.1-29.4-0.5-45c0.3-1.6-1.8-2.1-2.5-0.7
			c-3.5,9.9-10.7,24.2-7.2,35.2c3.3,10.8,9.5,20.4,11.2,32.1c1,6.9-3.6,15.6-2.5,22.8c2.6,15.8,10.5,41.3,28.4,46.2
			C628.5,649.6,625.3,580.7,604.5,575.4z"/>
		<path class="st2" d="M871.6,258.4c2.5-0.7,2.3-4.1,0-4.8c-18.6-5.9-38.6,6.6-51.4,19.1c-6.4,6.2-12.8,14.5-16.3,22.7
			c-3.9,9.5-7.9,27-20.5,28.1c-0.8,0-1.2,1.3-0.2,1.5c14,3.1,20.4-9.2,25.1-20.5c4.9-11.5,12-20.7,21-29.3
			C842,263.3,856,262.8,871.6,258.4z"/>
		<path class="st2" d="M967.2,109.4c18.6-2.1,34.8-7.6,54.1-6.1c0.8,0,1.6,0.2,2.5,0.2c-4.9,1.6-9.5,4.4-13.5,8.7
			c-1.8,2,1,4.6,2.8,3c14.1-12.2,37.5-5.9,53.9-2.8c6.7,1.3,11.8,1.8,16.9,1.3c3.8,1.3,7.4,2.6,11.3,4.3c13.5,5.9,26.1,8.2,40.6,9.4
			c24.3,1.8,48.2,8.7,72,13.5c4.6,1,6.4-5.6,2-7.1c-18.4-5.9-38.8-12.3-58-14.6c-12.7-1.5-25.1-2.1-37.8-4.8
			c-5.3-1.2-10.4-3.1-15.5-5.4c1-0.7,0.8-2.6-0.5-2.8c-2.3-0.3-4.4-0.5-6.4-0.3c-4.6-2.1-9.2-4.4-13.6-6.2
			c-17.8-7.2-37.8-5.8-56.5-6.9c-19.6-1.2-39.1-1-55.7,10.8C963.3,105,963.6,109.8,967.2,109.4z"/>
		<path class="st2" d="M1077.5,975c-21.2-5.8-39.1-16.6-61.1-19.1c-25.5-2.8-55.7,1.2-79.4-10.4c-1.8-0.8-3.8,1.3-2.1,2.8
			c17.3,15.9,42.1,12.8,64.1,14.3c17.4,1.2,35,2.3,50,12c8.9,5.8,18.7,6.2,28.6,4.1C1079.5,978.3,1079.3,975.5,1077.5,975z"/>
		<path class="st2" d="M1006,980.8c-22.2-7.9-43.1-12.5-66.9-15c-17.8-1.8-37.6-0.5-54.4-7.7c-1.8-0.8-21-10.7-8.7-15.6
			c11.7-4.8,23.2-1.5,30.9,7.4c-4.1,0.2-8.2,0.5-12.3,0.8c-1,0-1.3,1.2-0.8,1.8c5.1,6.1,12.7,4.4,20.1,4.4c3,0,4.8-3.3,3.3-5.8
			c-8.7-15-19.9-17.8-36.5-15.5c-10,1.3-23.2,6.1-15,17.4c9.7,13.3,34.7,16.4,49,18.1c17.4,2,34.7,2.5,51.9,5.4
			c13.5,2.3,25.6,6.1,39.3,5.3C1006.5,981.9,1006.5,981,1006,980.8z"/>
		<path class="st2" d="M828.7,778.8c2.8,3,6.7-1.3,4.4-4.3c-10-12.3-22.2-20.1-37.1-25c-12.7-4.1-23.2-6.9-30.7-18.7
			c-4.6-7.2-7.6-15.6-11.7-23c-0.8-1.3-2.6-0.3-2.3,1c3,14.3,8.1,29.1,20.4,38c6.6,4.8,15.3,6.7,22.7,9
			C808.3,760,818.5,768.2,828.7,778.8z"/>
		<path class="st2" d="M899.2,778.8c-5.9-12.5-32.4-33.7-46.8-25.3c-13,7.6,7.6,23.5,14.5,25c4.3,0.8,6.2-5.6,1.8-6.6
			c-4.9-1.2-19.9-15-6.7-13c7.2,1.2,14.8,7.4,20.2,11.8c2.8,2.3,24.5,26.3,4.3,27.1c-6.9,0.3-15.1-3.6-21.5-5.9
			c-18.1-6.2-37.8-6.6-53.4-19.1c-6.9-5.6-11.5-9.4-20.7-9.2c-1.5,0-1.5,1.8-0.3,2.3c15.3,6.2,26,19.1,42.1,25.1
			c15.1,5.8,32.7,10,48.5,13.8C900.2,809.3,906.6,794.2,899.2,778.8z"/>
		<path class="st2" d="M812.9,475.8c0.8-1.2-0.3-2.8-1.6-2.8c-5.6-0.3-10.2,0.8-15.1-3.1s-7.2-11.2-7.7-17.3
			c-1-12,9.4-27.9,21.7-29.3c2.6-0.3,2.6-3.6,0-3.9c-18.4-2-30.4,19.1-29.4,35.5C781.5,467.9,800.6,492.8,812.9,475.8z"/>
	</g>
</g>
</svg>
